<?xml version="1.0" encoding="utf-8"?>
<!-- Generator: Adobe Illustrator 24.2.3, SVG Export Plug-In . SVG Version: 6.00 Build 0)  -->
<svg version="1.1" id="Capa_1" xmlns="http://www.w3.org/2000/svg" xmlns:xlink="http://www.w3.org/1999/xlink" x="0px" y="0px"
	 viewBox="0 0 65.66 73.44" style="enable-background:new 0 0 65.66 73.44;" xml:space="preserve">
<style type="text/css">
	.st0{fill:#282F6B;}
</style>
<g>
	<g>
		<path class="st0" d="M40.23,25.99c-0.02,0.38-0.54,1.29-0.27,1.86c0.27,0.57,0.95,0.79,1.3,0.35c0.35-0.45,0.55-1.01,0.52-1.87
			c-0.03-0.86-0.43-2.94,0.27-3.83c0.7-0.89,1.78-0.7,2.12-0.34c0.77,0.83-0.14,3.77,0.47,4.51c0.61,0.74,1.26,0.09,1.35-0.42
			c0.1-0.51-0.29-4.39,0.21-4.99c0.51-0.6,1.73-0.69,2.13-0.01c0.4,0.69,0.23,3.04,0.7,3.65c0.47,0.61,1.12,0.36,1.25-0.26
			c0.13-0.62-0.24-2.44,0.16-3.18c0.31-0.58,1.86-0.66,2.31,0.06c0.34,0.56-0.4,1.3,0.14,1.94c0.55,0.63,1.33-0.02,1.56-0.57
			c0.23-0.55,0.06-1.49,0.45-1.96c0.4-0.47,0.98-0.63,1.44-0.04c0.46,0.59,0.13,1.29,0.64,2.05c0.41,0.82,1.18,0.88,1.46,1.58
			c0.28,0.69-0.15,1.12-0.75,1.23c-0.61,0.11-1.33-0.51-1.92-0.59c-0.59-0.08-1.55,0.28-1.27,1.07c0.27,0.79,1.29,0.52,1.6,1.09
			c0.4,0.75-0.44,2.05-1.1,2.03c-0.84-0.03-2.23-1.25-2.83-1.45c-0.6-0.2-1.14,0.23-0.85,0.95c0.29,0.72,2.41,1.75,2.81,2.43
			c0.4,0.69-0.3,1.7-1.07,1.84c-0.77,0.14-3.93-2.14-4.43-2.31c-0.49-0.17-1.38,0.06-1.04,0.96c0.34,0.9,3.34,1.59,3.67,2.67
			c0.15,0.47-0.23,1.5-1.36,1.66c-1.12,0.16-2.72-1.23-3.45-1.68c-0.73-0.45-1.32-0.56-1.88-0.48c-0.56,0.08-0.71,0.78-0.35,1.3
			c0.36,0.52,1.4,0.53,1.74,0.7c0.34,0.17,0.68,0.31,0.67,0.74c0,0.43-0.33,0.64-0.67,0.81c-0.34,0.17-1.38,0.18-1.74,0.7
			c-0.36,0.52-0.22,1.22,0.35,1.3c0.56,0.08,1.15-0.03,1.88-0.48c0.73-0.45,2.33-1.84,3.45-1.68c1.12,0.16,1.5,1.19,1.36,1.66
			c-0.33,1.08-3.33,1.76-3.67,2.67c-0.34,0.9,0.55,1.13,1.04,0.96c0.49-0.17,3.65-2.45,4.43-2.31c0.77,0.14,1.47,1.15,1.07,1.84
			c-0.4,0.68-2.51,1.72-2.81,2.43c-0.29,0.72,0.25,1.15,0.85,0.95c0.6-0.2,2-1.42,2.83-1.45c0.66-0.02,1.5,1.28,1.1,2.03
			c-0.31,0.58-1.33,0.3-1.6,1.09c-0.27,0.79,0.68,1.14,1.27,1.07c0.59-0.08,1.32-0.7,1.92-0.59c0.61,0.11,1.03,0.53,0.75,1.23
			c-0.28,0.69-1.05,0.76-1.46,1.58c-0.5,0.76-0.18,1.46-0.64,2.05c-0.46,0.59-1.04,0.43-1.44-0.04c-0.4-0.47-0.22-1.41-0.45-1.96
			c-0.23-0.55-1.01-1.2-1.56-0.57c-0.55,0.63,0.2,1.38-0.14,1.94c-0.45,0.72-1.99,0.64-2.31,0.06c-0.4-0.74-0.03-2.55-0.16-3.18
			c-0.13-0.62-0.77-0.87-1.25-0.26c-0.47,0.61-0.31,2.96-0.7,3.65c-0.4,0.69-1.62,0.59-2.13-0.01c-0.51-0.6-0.12-4.47-0.21-4.99
			c-0.1-0.51-0.74-1.17-1.35-0.42c-0.61,0.74,0.3,3.68-0.47,4.51c-0.34,0.36-1.42,0.55-2.12-0.34c-0.7-0.89-0.29-2.97-0.27-3.83
			c0.02-0.86-0.17-1.42-0.52-1.87c-0.35-0.45-1.03-0.23-1.3,0.35c-0.27,0.57,0.24,1.48,0.27,1.86c0.02,0.38-0.03,0.86-0.47,1.07
			c-0.44,0.22-0.84,0.01-1.16-0.2c-0.32-0.21-0.84-1.11-1.48-1.16c-0.63-0.05-1.16,0.42-0.95,0.95c0.21,0.53,0.6,0.98,1.36,1.39
			c0.75,0.41,2.76,1.09,3.18,2.15c0.42,1.06-0.28,1.9-0.76,2.01c-1.1,0.25-3.19-2.01-4.14-1.85c-0.95,0.16-0.71,1.04-0.31,1.38
			c0.4,0.34,3.95,1.94,4.21,2.68c0.26,0.74-0.26,1.85-1.06,1.85c-0.79,0-2.74-1.32-3.51-1.21c-0.76,0.11-0.87,0.79-0.4,1.21
			c0.47,0.42,2.23,1.02,2.67,1.73c0.35,0.56-0.36,1.94-1.21,1.96c-0.65,0.02-0.93-1-1.75-0.84c-0.82,0.16-0.65,1.16-0.29,1.64
			c0.36,0.48,1.26,0.79,1.47,1.37c0.21,0.58,0.05,1.16-0.69,1.27c-0.74,0.11-1.18-0.53-2.09-0.48c-0.91-0.05-1.36,0.58-2.1,0.48
			c-0.74-0.11-0.9-0.69-0.69-1.27c0.21-0.58,1.11-0.9,1.47-1.37c0.36-0.47,0.53-1.48-0.29-1.64c-0.82-0.16-1.1,0.86-1.75,0.84
			c-0.85-0.03-1.55-1.4-1.21-1.96c0.44-0.71,2.2-1.31,2.67-1.73c0.47-0.42,0.37-1.11-0.4-1.21c-0.77-0.11-2.72,1.21-3.51,1.21
			c-0.79,0-1.32-1.11-1.06-1.85c0.26-0.74,3.82-2.34,4.21-2.68c0.4-0.34,0.64-1.23-0.31-1.38c-0.95-0.16-3.04,2.1-4.14,1.85
			c-0.48-0.11-1.18-0.95-0.76-2.01c0.42-1.06,2.43-1.74,3.18-2.15c0.75-0.41,1.14-0.86,1.36-1.39c0.21-0.53-0.32-1-0.95-0.95
			c-0.63,0.05-1.16,0.95-1.48,1.16c-0.32,0.21-0.77,0.45-1.15,0.22c-0.38-0.23-0.34-0.63-0.32-1.01c0.02-0.38,0.54-1.29,0.27-1.86
			c-0.27-0.57-0.95-0.79-1.3-0.35c-0.35,0.45-0.55,1.01-0.52,1.87c0.03,0.86,0.43,2.94-0.27,3.83c-0.7,0.89-1.78,0.7-2.12,0.34
			c-0.77-0.83,0.14-3.77-0.47-4.51c-0.61-0.74-1.26-0.09-1.35,0.42c-0.1,0.51,0.29,4.39-0.21,4.99c-0.51,0.6-1.73,0.69-2.13,0.01
			c-0.4-0.69-0.23-3.04-0.7-3.65c-0.47-0.61-1.12-0.36-1.25,0.26c-0.13,0.62,0.24,2.44-0.16,3.18c-0.31,0.58-1.86,0.66-2.31-0.06
			c-0.34-0.56,0.4-1.3-0.14-1.94c-0.55-0.63-1.33,0.02-1.56,0.57c-0.23,0.55-0.06,1.49-0.45,1.96c-0.4,0.47-0.98,0.63-1.44,0.04
			c-0.46-0.59-0.13-1.29-0.64-2.05c-0.41-0.82-1.18-0.88-1.46-1.58c-0.28-0.69,0.15-1.12,0.75-1.23c0.61-0.11,1.33,0.51,1.92,0.59
			c0.59,0.08,1.55-0.28,1.27-1.07c-0.27-0.79-1.29-0.52-1.6-1.09c-0.4-0.75,0.44-2.05,1.1-2.03c0.84,0.02,2.23,1.25,2.83,1.45
			c0.6,0.2,1.14-0.23,0.85-0.95c-0.29-0.72-2.41-1.75-2.81-2.43c-0.4-0.69,0.3-1.7,1.07-1.84c0.77-0.14,3.93,2.14,4.43,2.31
			c0.49,0.17,1.38-0.06,1.04-0.96c-0.34-0.9-3.34-1.59-3.67-2.67c-0.15-0.47,0.23-1.5,1.36-1.66c1.12-0.16,2.72,1.23,3.45,1.68
			c0.73,0.45,1.32,0.56,1.88,0.48c0.56-0.08,0.71-0.78,0.35-1.3c-0.36-0.52-1.4-0.53-1.74-0.7c-0.34-0.17-0.73-0.4-0.73-0.89
			c0-0.5,0.31-0.65,0.65-0.82c0.34-0.17,1.38-0.18,1.74-0.7c0.36-0.52,0.21-1.22-0.35-1.3c-0.56-0.08-1.15,0.03-1.88,0.48
			c-0.73,0.45-2.33,1.84-3.45,1.68c-1.12-0.16-1.5-1.19-1.36-1.66c0.33-1.08,3.33-1.76,3.67-2.67c0.34-0.9-0.55-1.13-1.04-0.96
			c-0.49,0.17-3.65,2.45-4.43,2.31c-0.77-0.14-1.47-1.15-1.07-1.84c0.4-0.69,2.51-1.72,2.81-2.43c0.29-0.72-0.25-1.15-0.85-0.95
			c-0.6,0.2-2,1.42-2.83,1.45c-0.66,0.02-1.5-1.28-1.1-2.03c0.31-0.58,1.33-0.3,1.6-1.09c0.27-0.79-0.68-1.14-1.27-1.07
			c-0.59,0.08-1.32,0.7-1.92,0.59c-0.61-0.11-1.03-0.53-0.75-1.23c0.28-0.69,1.05-0.76,1.46-1.58c0.5-0.76,0.18-1.46,0.64-2.05
			c0.46-0.59,1.04-0.43,1.44,0.04c0.4,0.47,0.22,1.41,0.45,1.96c0.23,0.55,1.01,1.2,1.56,0.57c0.55-0.63-0.2-1.38,0.14-1.94
			c0.45-0.72,1.99-0.64,2.31-0.06c0.4,0.74,0.03,2.55,0.16,3.18c0.13,0.62,0.77,0.87,1.25,0.26c0.47-0.61,0.31-2.96,0.7-3.65
			c0.4-0.69,1.62-0.59,2.13,0.01c0.51,0.6,0.12,4.47,0.21,4.99c0.1,0.51,0.74,1.17,1.35,0.42c0.61-0.74-0.3-3.68,0.47-4.51
			c0.34-0.36,1.42-0.55,2.12,0.34c0.7,0.89,0.29,2.97,0.27,3.83c-0.02,0.86,0.17,1.42,0.52,1.87c0.35,0.45,1.03,0.23,1.3-0.35
			c0.27-0.57-0.24-1.48-0.27-1.86c-0.02-0.38-0.09-0.82,0.31-1.07c0.4-0.25,0.93-0.03,1.24,0.19c0.32,0.21,0.84,1.11,1.48,1.16
			c0.63,0.05,1.16-0.42,0.95-0.95c-0.21-0.53-0.6-0.98-1.36-1.39c-0.75-0.41-2.76-1.09-3.18-2.15c-0.42-1.06,0.28-1.9,0.76-2.01
			c1.1-0.25,3.19,2.01,4.14,1.85c0.95-0.16,0.71-1.04,0.31-1.38c-0.4-0.34-3.95-1.94-4.21-2.68c-0.26-0.74,0.26-1.85,1.06-1.85
			c0.79,0,2.74,1.32,3.51,1.21c0.76-0.11,0.87-0.79,0.4-1.21c-0.47-0.42-2.23-1.02-2.67-1.73c-0.35-0.56,0.36-1.94,1.21-1.96
			c0.65-0.02,0.93,1,1.75,0.84c0.82-0.16,0.65-1.16,0.29-1.64c-0.36-0.47-1.26-0.79-1.47-1.37c-0.21-0.58-0.05-1.16,0.69-1.27
			c0.74-0.11,1.18,0.53,2.1,0.47c0.91,0.05,1.36-0.58,2.09-0.47c0.74,0.11,0.9,0.69,0.69,1.27c-0.21,0.58-1.11,0.9-1.47,1.37
			c-0.36,0.47-0.53,1.48,0.29,1.64c0.82,0.16,1.1-0.86,1.75-0.84c0.85,0.03,1.55,1.4,1.21,1.96c-0.44,0.71-2.2,1.31-2.67,1.73
			c-0.48,0.42-0.37,1.11,0.4,1.21c0.77,0.11,2.72-1.21,3.51-1.21c0.79,0,1.32,1.11,1.06,1.85c-0.26,0.74-3.82,2.34-4.21,2.68
			c-0.4,0.34-0.64,1.23,0.31,1.38c0.95,0.16,3.04-2.1,4.14-1.85c0.48,0.11,1.18,0.95,0.76,2.01c-0.42,1.06-2.43,1.74-3.18,2.15
			c-0.75,0.41-1.14,0.86-1.36,1.39c-0.21,0.53,0.32,1,0.95,0.95c0.63-0.05,1.16-0.95,1.48-1.16c0.32-0.21,0.83-0.37,1.23-0.09
			C40.23,25.23,40.26,25.61,40.23,25.99z M32.99,52.87l2.62-9.55l-2.62-3.64l-2.62,3.64L32.99,52.87z M32.86,23.09l-2.03,8.7h2.04
			l0,0h2.04L32.86,23.09z M21.3,43.38l8.55-2.6l-1.02-1.77l0,0l-1.02-1.77L21.3,43.38z M44.39,43.12l-6.52-6.11l-1.02,1.77l0,0
			l-1.02,1.77L44.39,43.12z M46.89,28.62l-9.58,2.5l-1.84,4.09l4.46,0.45L46.89,28.62z M19.18,28.55l6.96,7.05l4.46-0.45l-1.84-4.09
			L19.18,28.55z M32.87,7c0,0,0.99-0.02,1.1-0.8c0.11-0.78-0.33-1.57-0.55-1.72c-0.22-0.15-0.55-0.2-0.55-0.2h0.02
			c0,0-0.33,0.05-0.55,0.2c-0.22,0.15-0.66,0.94-0.55,1.72c0.11,0.78,1.1,0.8,1.1,0.8H32.87z M7.1,21.61c0,0,0.48-0.86-0.14-1.35
			c-0.62-0.49-1.52-0.5-1.77-0.39C4.95,20,4.75,20.26,4.75,20.26l0.01-0.02c0,0-0.12,0.3-0.1,0.57c0.02,0.27,0.49,1.04,1.22,1.34
			c0.73,0.29,1.24-0.55,1.24-0.55L7.1,21.61z M7.03,51.61c0,0-0.51-0.84-1.24-0.55c-0.73,0.29-1.2,1.07-1.22,1.34
			c-0.02,0.27,0.1,0.57,0.1,0.57l-0.01-0.02c0,0,0.2,0.26,0.45,0.38c0.24,0.12,1.15,0.1,1.77-0.39c0.62-0.49,0.14-1.35,0.14-1.35
			L7.03,51.61z M33.09,66.44c0,0-0.99,0.02-1.1,0.8c-0.11,0.78,0.33,1.57,0.55,1.72c0.22,0.15,0.55,0.2,0.55,0.2h-0.02
			c0,0,0.33-0.05,0.55-0.2c0.22-0.15,0.66-0.94,0.55-1.72c-0.11-0.78-1.1-0.8-1.1-0.8H33.09z M58.67,51.28c0,0-0.48,0.86,0.14,1.35
			c0.62,0.49,1.52,0.5,1.77,0.39c0.24-0.12,0.45-0.38,0.45-0.38l-0.01,0.02c0,0,0.12-0.3,0.1-0.57c-0.02-0.27-0.49-1.04-1.22-1.34
			c-0.73-0.29-1.24,0.55-1.24,0.55L58.67,51.28z M58.55,21.8c0,0,0.51,0.84,1.24,0.55c0.73-0.29,1.2-1.07,1.22-1.34
			c0.02-0.27-0.1-0.57-0.1-0.57l0.01,0.02c0,0-0.2-0.26-0.45-0.38c-0.24-0.12-1.15-0.1-1.77,0.39c-0.62,0.49-0.14,1.35-0.14,1.35
			L58.55,21.8z M28.34,28.64c0,0,0.43-0.26,0.2-0.77c-0.23-0.51-0.71-0.89-0.86-0.93c-0.15-0.04-0.31,0.02-0.31,0.02l0.01-0.01
			c0,0-0.13,0.11-0.17,0.26c-0.04,0.15,0.04,0.75,0.37,1.21C27.91,28.87,28.35,28.63,28.34,28.64L28.34,28.64z M23.91,36.66
			c0,0-0.01-0.5-0.57-0.56c-0.56-0.06-1.12,0.17-1.23,0.28c-0.11,0.11-0.14,0.28-0.14,0.28v-0.01c0,0,0.03,0.17,0.14,0.28
			c0.11,0.11,0.67,0.34,1.23,0.28c0.56-0.06,0.57-0.56,0.57-0.56V36.66z M42.65,36.65c0,0,0.01,0.5,0.57,0.56
			c0.56,0.06,1.12-0.17,1.23-0.28c0.11-0.11,0.14-0.28,0.14-0.28v0.01c0,0-0.03-0.17-0.14-0.28c-0.11-0.11-0.67-0.34-1.23-0.28
			c-0.56,0.06-0.57,0.56-0.57,0.56V36.65z M37.8,28.46c0,0,0.44,0.24,0.77-0.21c0.33-0.45,0.42-1.05,0.37-1.21
			c-0.04-0.15-0.17-0.26-0.17-0.26l0.01,0.01c0,0-0.16-0.05-0.31-0.02c-0.15,0.04-0.63,0.41-0.86,0.93
			C37.38,28.2,37.81,28.47,37.8,28.46L37.8,28.46z M28.27,44.57c0,0-0.44-0.24-0.77,0.21c-0.33,0.45-0.42,1.06-0.37,1.21
			c0.04,0.15,0.17,0.26,0.17,0.26l-0.01-0.01c0,0,0.16,0.05,0.31,0.02c0.15-0.04,0.63-0.41,0.86-0.93
			C28.69,44.83,28.26,44.57,28.27,44.57L28.27,44.57z M37.81,44.89c0,0-0.43,0.26-0.2,0.77c0.23,0.51,0.71,0.89,0.86,0.93
			c0.15,0.04,0.31-0.02,0.31-0.02l-0.01,0.01c0,0,0.13-0.11,0.17-0.26c0.04-0.15-0.04-0.75-0.37-1.21
			C38.25,44.65,37.8,44.89,37.81,44.89L37.81,44.89z"/>
	</g>
</g>
</svg>
