<?xml version="1.0" encoding="utf-8"?>
<!-- Generator: Adobe Illustrator 24.2.3, SVG Export Plug-In . SVG Version: 6.00 Build 0)  -->
<svg version="1.1" id="Diseño" xmlns="http://www.w3.org/2000/svg" xmlns:xlink="http://www.w3.org/1999/xlink" x="0px" y="0px"
	 viewBox="0 0 1842.52 811.2" style="enable-background:new 0 0 1842.52 811.2;" xml:space="preserve">
<style type="text/css">
	.st0{display:none;fill:#B71E1D;stroke:#FFFFFF;stroke-width:0.5;stroke-miterlimit:10;}
	.st1{fill:#002F87;}
	.st2{fill:#67B550;}
</style>
<rect x="638.39" y="35.09" class="st0" width="519.1" height="258.03"/>
<g>
	<path class="st1" d="M756.42,147.78h-36.06c-3.31,0-13.98-1.11-13.98,4.79c0,6.62,18.03,40.1,18.03,135.76
		c0,100.81-39.74,105.59-58.13,105.59c-21.71,0-51.88-25.76-51.88-109.27c0-84.62,18.4-123.62,18.4-132.08
		c0-4.79-4.41-4.79-8.09-4.79h-51.14c-4.78,0-18.76,30.53-18.76,148.27c0,110.01,42.3,163.36,111.47,163.36
		c78.73,0,111.84-65.13,111.84-173.29C778.12,153.67,763.77,147.78,756.42,147.78"/>
	<path class="st1" d="M525.36,216.58c0-31.28-17.29-68.8-85.73-68.8h-97.5c-6.25,0-25.39-6.62-25.39,175.13
		c0,137.96,11.04,130.98,20.24,130.98h42.68c3.68,0,12.88,1.84,12.88-4.42c0-2.58-13.62-52.98-13.62-80.94
		c0-20.61,26.86-35.69,37.89-35.69c21.34,0,50.77,74.69,50.77,116.26c0,5.88,11.41,4.78,18.03,4.78h41.57c7.73,0,9.2-0.74,9.2-4.78
		c0-86.83-66.22-135.03-66.22-145.33C470.18,293.47,525.36,275.45,525.36,216.58 M387.76,289.43c-11.04,0-11.41-14.72-11.41-22.44
		c-0.37-63.65,14.36-75.79,47.84-75.79c19.86,0,41.57,8.46,41.57,31.64C465.76,256.68,400.27,289.43,387.76,289.43"/>
	<path class="st1" d="M999.61,147.78h-42.68c-4.41,0-13.98-1.11-13.98,5.89c0,9.56,24.28,31.64,24.28,109.27
		c0,65.85-35.64,119.94-54.77,119.94c-8.83,0-56.34-54.09-56.34-119.94c0-77.63,19.5-99.71,19.5-109.27c0-7-12.88-5.89-17.29-5.89
		h-41.94c-6.62,0-19.86,1.84-19.86,89.4c0,167.4,104.12,225.53,111.48,225.53c22.07,0,112.95-91.24,112.95-218.17
		C1020.95,177.21,1008.08,147.78,999.61,147.78"/>
	<path class="st1" d="M1463.93,340.2c-3.31,0-8.46,53.71-68.43,53.71c-32.01,0-79.84-28.33-79.84-98.6
		c0-45.99,22.81-100.81,76.52-100.81c46.73,0,26.49,34.59,41.58,34.59c23.18,0,37.89-12.14,37.89-33.48
		c0-39.74-49.3-53.35-81.31-53.35c-89.4,0-134.29,87.2-134.29,167.03c0,74.32,39,150.11,122.51,150.11
		c51.51,0,93.45-31.64,93.45-86.09C1472.03,369.64,1469.09,340.2,1463.93,340.2"/>
	<path class="st1" d="M1615.15,142.26c-68.8,0-121.78,105.59-121.78,200.14c0,63.65,29.07,117,103.39,117h36.79
		c74.32,0,103.38-53.35,103.38-117C1736.93,247.85,1683.95,142.26,1615.15,142.26 M1615.15,393.91c-39,0-62.18-16.55-62.18-59.6
		c0-81.31,37.53-132.45,62.18-132.45s62.18,51.14,62.18,132.45C1677.34,377.36,1654.16,393.91,1615.15,393.91"/>
	<path class="st1" d="M1213.38,382.51c-8.83,0-31.27,24.29-67.69,24.29c-30.91,0-46.37-21.34-46.37-50.77
		c0-36.43,27.23-50.04,45.99-50.04c14.35,0,28.33,7.36,32.01,7.36c4.42,0,25.02-59.97,25.02-60.34c0-6.25-12.14-7.73-16.56-7.73
		c-30.9,0-57.02,17.29-68.8,17.29c-10.3,0-11.77-13.24-11.77-20.97c0-35.32,26.85-50.41,52.24-50.41
		c36.06,0,47.09,17.29,53.34,17.29c4.79,0,28.33-51.51,28.33-54.45c0-7.36-13.24-6.25-17.66-6.25H1076.5
		c-10.67,0-30.91,169.97-30.91,219.27c1.84,74.68-4.04,87.56,15.46,86.83h168.87c4.42,0,13.61,1.47,13.61-5.52
		C1243.55,444.68,1218.9,382.51,1213.38,382.51"/>
	<path class="st1" d="M290.99,147.78H140.52c-6.26,0-25.39-6.62-25.39,175.13c0,137.96,11.03,130.97,20.24,130.97h43.41
		c3.32,0,12.52,1.11,12.14-3.31c0.37-4.05-14.35-55.56-14.35-87.56c0-30.18,16.19-48.93,48.57-48.93c14.35,0,24.28,5.15,27.96,5.15
		c6.25,0,20.6-57.39,20.6-59.24c0-6.25-8.46-6.25-12.51-6.25c-48.56,0-50.76,16.92-74.68,16.92c-10.67,0-11.78-6.99-11.78-29.06
		c0-35.32,26.86-50.4,52.25-50.4c36.05,0,47.09,17.29,53.34,17.29c4.79,0,28.33-51.51,28.33-54.46
		C308.65,146.67,295.41,147.78,290.99,147.78"/>
	<path class="st1" d="M102.29,610.36c-0.47-0.17-0.3,1.7-0.37,2.04C102.69,611.99,102.26,609.87,102.29,610.36"/>
	<polygon class="st1" points="109.94,606.11 109.8,606.87 110.93,605 	"/>
	<path class="st1" d="M117.09,606.15c-0.68-3.19-2.59,0.51-3.87-0.62l-0.21-0.72l-0.58,2.56C113.99,606.96,116,605.26,117.09,606.15
		"/>
	<path class="st1" d="M120.91,613.03c-0.24-1.24,0.82-1.06-0.89-0.38c0.08,0.13,0.11,0.21,0.16,0.31
		C120.33,612.95,120.54,612.95,120.91,613.03"/>
	<path class="st1" d="M120.17,612.96C119.42,613.05,120.67,614,120.17,612.96"/>
	<path class="st1" d="M123.66,612.25l-0.99,1.11c0.21,0.73,1.09,0.9,0.77,1.43C124.44,614.18,124.23,613.46,123.66,612.25"/>
	<path class="st1" d="M124.6,609.93l-0.51,0.46C124.17,610.71,124.31,610.81,124.6,609.93"/>
	<path class="st1" d="M122.99,611.39l1.09-0.99c-0.15-0.51-0.16-1.54-0.51,0.36C123.67,609.81,123.45,610.71,122.99,611.39"/>
	<path class="st1" d="M122.37,610.9c-0.56-0.69-1.28-1.12-0.28-2.23C120.19,609.1,120.47,611.34,122.37,610.9"/>
	<path class="st1" d="M117.45,602.85l-0.75-0.93l-0.64,1.06C116.39,602.46,117.5,603.85,117.45,602.85"/>
	<path class="st1" d="M129.83,613.9c0.06-0.68-0.33-1.81-0.41-2.68L128.7,612C129.07,612.47,129.79,612.89,129.83,613.9"/>
	<path class="st1" d="M129.43,611.23l1.09-1.17C129.55,609.92,129.36,610.48,129.43,611.23"/>
	<polygon class="st1" points="124.77,606.39 122.97,608.83 125.12,606.36 	"/>
	<polygon class="st1" points="134.02,613.98 133.4,615.56 134.51,613.18 	"/>
	<path class="st1" d="M136.8,613.71c-0.46,1.3,0.63,2.2,0.14,3c0.76-0.24,1.4-1.35,1.98-2.35
		C138.31,614.92,137.65,614.78,136.8,613.71"/>
	<path class="st1" d="M139.9,612.89c-0.31,0.31-0.63,0.87-0.98,1.46C139.25,614.06,139.58,613.63,139.9,612.89"/>
	<path class="st1" d="M132.4,610.4c0.08,0.41,0.24,1.48,0.86,1.94l-0.43-1.91C132.69,610.42,132.55,610.41,132.4,610.4"/>
	<path class="st1" d="M132.81,610.37l0.01,0.06c0.47,0.04,0.79,0.09,0.93,0.11C133.64,610.52,133.36,610.47,132.81,610.37"/>
	<path class="st1" d="M132.28,610.39c0.04,0,0.07,0.01,0.11,0.01C132.35,610.21,132.33,610.15,132.28,610.39"/>
	<path class="st1" d="M127.65,608.12c0.64-1.06,1.99-2.21,0.69-3.84C127.87,605.59,128.61,606.51,127.65,608.12"/>
	<path class="st1" d="M131.75,608l-1.16-0.44c0.02,0.51,0.23,1.25-0.09,1.77L131.75,608z"/>
	<polygon class="st1" points="132.32,607.4 131.75,608.01 132.18,608.17 	"/>
	<path class="st1" d="M137.91,611.12c0.51-0.84,1.05-0.91,1.67-1.04c-0.67-0.37-1.35-0.58-2.01-0.58
		C137.48,610.1,137.19,611.18,137.91,611.12"/>
	<path class="st1" d="M135.43,610.58c0.04-0.04,0.08-0.07,0.11-0.1C135.47,610.31,135.41,610.26,135.43,610.58"/>
	<path class="st1" d="M145.7,610.1c-0.03-0.1-0.07-0.24-0.1-0.35c0,0.11-0.01,0.22-0.02,0.33L145.7,610.1z"/>
	<path class="st1" d="M137.46,609.15c-0.5-0.37-0.8,0.1-1.09,0.69c0.37-0.19,0.77-0.32,1.2-0.33
		C137.61,609.23,137.62,609.06,137.46,609.15"/>
	<path class="st1" d="M141.61,612c-0.26-0.39-0.56-0.73-0.87-1.05C141,611.56,141.51,612.5,141.61,612"/>
	<path class="st1" d="M135.71,611c-0.03,0.03-0.05,0.07-0.07,0.09C135.8,611.5,135.78,611.3,135.71,611"/>
	<path class="st1" d="M135.71,611c0.26-0.28,0.46-0.75,0.66-1.17c-0.31,0.16-0.58,0.36-0.83,0.64
		C135.61,610.61,135.67,610.81,135.71,611"/>
	<path class="st1" d="M147.56,597.85c-0.09,1.77-1.4,3.4-2.54,1.51c-1.12,1.33-0.39,7.14,0.59,10.39c0.03-0.77,0.03-1.48,1.18-2.53
		c-0.4-0.97-2.55-2.26-1.58-3.86c1.52-0.91,1.25,0.63,1.99,1.56c-0.63-2.2,1.94-3.2,1.61-6.44l-1.34,1.14
		C147.44,599.11,147.93,598.31,147.56,597.85"/>
	<path class="st1" d="M143.41,609.56l-0.47,0.22c0.54,0.31,0.92,1.01,1.64,2.4c0.78-0.86,0.95-1.52,1.01-2.11l-2.33-0.24
		L143.41,609.56z"/>
	<path class="st1" d="M140.81,609.79c0.37-1.93,1.51-2.74,0.81-4.82c-1.39,0.13-0.98,1.6-1.8,2.44c2.24-0.48-0.65,1.07,0.98,2.16
		c-0.44,0.32-0.84,0.43-1.21,0.51c0.41,0.24,0.79,0.52,1.16,0.88c-0.02-0.04-0.04-0.08-0.06-0.12l-0.01,0.01c0-0.02,0-0.02,0-0.03
		c-0.09-0.24-0.13-0.38-0.02-0.24c0.01-0.03,0.03-0.03,0.05-0.03C140.73,610.26,140.77,610.03,140.81,609.79
		c0.65,0.41,0.1,0.51-0.1,0.74c-0.01,0.09-0.03,0.18-0.03,0.28c0.01,0.01,0.01,0.02,0.01,0.03l2.25-1.05
		C142.46,609.51,141.87,609.57,140.81,609.79"/>
	<path class="st1" d="M129.53,600.14c0.07,0.17,0.07,0.31,0.07,0.45C129.75,600.35,129.8,600.19,129.53,600.14"/>
	<path class="st1" d="M130.46,601.31c-0.17,0.26-0.3,1.03-0.83,0.84c-0.46-0.58,0-0.92-0.02-1.55c-0.32,0.51-1.12,1.38-0.12,2.31
		l0.17-0.26c0.9,0.66,2.07,3.06,1.91,3.32C131.29,604.24,131.06,603,130.46,601.31"/>
	<path class="st1" d="M135.7,605.06l1.87-0.94l-0.95-1.67l0.05,1C135.61,603.06,135.83,604.29,135.7,605.06"/>
	<polygon class="st1" points="145.92,611.05 145.67,613.08 146.75,610.22 	"/>
	<polygon class="st1" points="148.35,610.8 148.26,612.57 148.9,611.51 	"/>
	<path class="st1" d="M285.58,588.89l0.55-0.5C285.86,588.54,285.7,588.71,285.58,588.89"/>
	<path class="st1" d="M281.6,588.77l-0.1,0.87C281.68,589.16,281.75,588.81,281.6,588.77"/>
	<path class="st1" d="M208.07,610.61c0.8,1.65,1.7,4.2,1.6,2.22l-0.24-1.94C208.87,611.24,208.44,611.02,208.07,610.61"/>
	<path class="st1" d="M248.97,599.04c-0.07-0.18-0.16-0.38-0.23-0.58c-0.2,0.66-0.38,1.27-0.54,1.85
		C248.43,599.91,248.7,599.5,248.97,599.04"/>
	<path class="st1" d="M249.54,591.03l1.05,1.25C250.36,591.84,250.02,591.43,249.54,591.03"/>
	<path class="st1" d="M307.32,586.84l0.64-1.97C306.95,584.88,307.4,585.87,307.32,586.84"/>
	<path class="st1" d="M173.26,610.1c0.69,0.75,1.24,1.07,1.72,1.17C174.15,610.15,173.47,608.48,173.26,610.1"/>
	<path class="st1" d="M284.01,609.44c0.33-0.36,0.48-0.75,0.47-1.19C284.13,608.6,283.94,608.96,284.01,609.44"/>
	<path class="st1" d="M176.97,611.25c-0.12-0.19-0.24-0.29-0.37-0.45c-0.51,0.32-1.01,0.58-1.63,0.45
		C175.6,612.09,176.3,612.6,176.97,611.25"/>
	<path class="st1" d="M386.17,588.44c0.06,0.09,0.12,0.13,0.17,0.24C386.36,588.41,386.28,588.4,386.17,588.44"/>
	<path class="st1" d="M409.13,607.98c-0.22,0.12-0.59,0.12-0.94,0.15C408.36,608.26,408.65,608.25,409.13,607.98"/>
	<path class="st1" d="M158.13,611.65C157.61,611.78,158.05,611.86,158.13,611.65"/>
	<path class="st1" d="M155.63,603.99c0.1-0.22,0.19-0.5,0.2-0.94C155.79,603.52,155.72,603.81,155.63,603.99"/>
	<path class="st1" d="M182.11,599.2c0.01,0,0.03,0.01,0.05,0.01C182,598.83,182.03,598.9,182.11,599.2"/>
	<path class="st1" d="M157.36,610.77c0.19,0.24,0.42,0.44,0.66,0.58C157.91,611.19,157.71,611.01,157.36,610.77"/>
	<path class="st1" d="M157.46,611.68c-0.18-0.09-0.32-0.13-0.45-0.18C156.95,611.82,157,612.02,157.46,611.68"/>
	<path class="st1" d="M158.85,611.54c-0.3,0.03-0.57-0.06-0.84-0.2c0.1,0.13,0.14,0.24,0.12,0.31
		C158.29,611.62,158.5,611.59,158.85,611.54"/>
	<path class="st1" d="M343.92,593.62c0.04,0.07,0.07,0.1,0.11,0.18C344.55,593,344.32,593.13,343.92,593.62"/>
	<path class="st1" d="M221.5,590.5c-0.03,0.02-0.03,0.07-0.06,0.1c0.03,0.02,0.05,0.04,0.08,0.06L221.5,590.5z"/>
	<path class="st1" d="M223.34,589.05c-0.78,2.41-1.23,2.12-1.83,1.6l0.61,5.59L223.34,589.05z"/>
	<path class="st1" d="M295.11,588.33l-1.3-1.73c1.57-2.87,2.71-1.88,1.48-4.32c-0.18,6.06-5.06,0.62-5.24,6.68l-0.85-1.28
		c0.24,0.07,0.29-0.29,0.52-0.24c-1.66-2.9-1.23,4.38-3.38,3.52c-0.75-0.46-1.27-1.34-0.76-2.07l-1.67,1.5
		c-0.48-0.11-0.37-1.17,0.12-1.05l-2.55,0.49l0.03-0.18c-0.37,0.96-1.19,2.42-1.59,3.05c-0.65-0.87,0.33-0.64,0.15-1.4l-1.4,1.47
		c-0.58-1.57,0.59-3.09,1.57-2.87c-1.32-6.05-1.17,1.52-4.01-2.01l1.33-0.77c-0.86-3.44-1.9-2.19-3.4-4.34
		c0.36,1.12,3.01,5.4,1.48,6.91c-0.43-0.45-1-0.67-1.83,0.55c-0.01-2.15-0.81-1.63-1.82-1.51l0.07-2.85c-1.09,0.82-1,2.28-1.64,3.56
		c-1.22-0.29-1.47-2.5-1.76-4.36c-1.94-0.45,1.34,3.54-0.96,4.08c-1.61-1.09-2.75,0.08-4.69,1.79c-1.13-0.98,0.2-1.74-0.2-2.56
		l-1.01,2.28c-0.24-0.05-0.17-0.76-0.13-1.11c-0.85,0.88-0.07,2.85-1.4,3.63c-0.36,3.15-2.73-4.59-4.37-1.02
		c-0.41-0.81,0.19-1.75,0.07-2.86c-2.26,2.34-1.94,1.71-3.8,4.86l-1.58-1.87c1.17,2.15-0.32,4.68-1.62,6.77
		c0.41,1.03,0.77,1.94,1,2.37l-2.07,1.53c-0.25-0.47-0.04-1.46,0.3-2.65c-0.15,0.24-0.28,0.47-0.38,0.69
		c-0.74-1.05-0.36-2.7,0.17-4.3c0.26,0.56,0.51,1.16,0.75,1.76c0.51-1.73,0.99-3.65,0.88-5.33c-0.13,0.32-0.39,0.61-0.68,0.77
		c0.14-0.47,0.22-0.89,0.16-1.17c-0.07-0.3-0.29,0.32-0.62,1.05l-0.47-3.18l-0.11,1.26l-2.71-2c-1.94,3.21-3.63,7.92-6.71,9.24
		c0.77-2.34,0.17-3.82,0.21-6.58c0.84,2.93,2.38-1.25,3.98-0.64c-0.83-0.31-0.65-1.63-0.44-2.08l-2.85,2.66
		c0.07-2.27-0.6-1.7-1.34-2.63c0.56,4.47-2.13,2.98-3.28,4.35c-0.07-1.5,0.2-3.03,1.62-2.68c-1.56-3.36-2.02,5.26-3.55,2.4
		c0.35-0.03,0.53,0.19,0.67-0.57c-0.8,1.33-2.78,0.27-2.31-1.04l0.34-0.03c-2.29-0.53-6.97-0.03-7.31,3.76
		c-0.02-0.49,0.3-4.57,0.44-5.33l-4.09,12.77c0.37-3.26-1.02-11.03,0.88-12.87c-0.54-0.46-1.22-1.01-2.37,0.14
		c0.37,0.46,0.93,4.72,0.42,5.01c-1.4-3.63-0.97-1.94-2.69-5.03c0.56,0.69-0.07,5.81-0.94,5.64c0.14-0.76-0.08-5.05,0.24-5.58
		l-2.19,5.02c0.55-0.91,0.1-4.25-0.39-5.67c0.23,0.98-1.9-0.1-2.48,0.4l0.92,1.16c-2.48-0.76-2.44,7.06-4.9,6.8
		c0.3-1.04,0.73-6.38-0.51-7.02c-0.58,2.58-2.54,12.37-4.71,14.35l-0.42-1.47l-1.67,1.67c1.03-3.86,3.95-12,5.54-15.18
		c-0.92-1.16-0.26-1.73-1.64-1.59c-0.49-1.38,0.76-2.08,1.16-2.17l-3.23-0.89c0.15,3.01-2.47,3.02-2.34,5.51l3.51-3.11
		c0.14,3-2.03,8.52-4.32,7.99c-0.58-1.19,0.44-5.34,0.39-6.35c-0.3,1.04-2.17,1.98-2.38,1.24l0.97-1.6
		c-1.27-1.12-2.08,3.98-3.61,1.12c-0.53-0.19-1.58-3.86-1.67-2.08c0.86,3.42,1.03,14.01,0.45,16.58c-0.19-0.23-2.77-3.27-3.38-4.96
		c-0.87-2.68,1.31-6.4,0.57-8.7c-0.03,0.81-0.51,1.83-0.71,2.15c-0.56-0.7,0.23-2.54-0.98-2.17c-0.2,3.04-2.45-0.26-0.57,2.57
		c-1.18,0.87-1.25-0.63-2.64-0.49c0.44,1.96-1.24,6.69-2.42,7.55c0.07-0.77-0.2-1.78-0.33-2.24c-2.42-0.27-3.72-1.66-5.97-1.68
		c-0.21-0.73-1.3-1.62-0.83-2.93c-0.32,0.53-0.62,1.56-1.32,1.64c-1.35-2.63,1.56-0.41,0.53-3.57c-0.09,1.77-1.8,2.44-2.79,3.55
		c0.31,2.73,2.29,0.52,3.29-0.58c0,3.77-1.72,7.71-4.08,9.46c-1.87,0.93-0.81-2.44-1.14-1.9c-3.52-0.66-2.99,6.57-5.92,3.85
		c-1.16-2.39-0.05-4.77-0.31-6.49c1.53-0.92,2.34,1.52,3.38,1.42l-1.27-1.13c0.49-0.79,1.51-1.4,2.06-0.71
		c-0.97-2.15-5.94-0.42-8.66-2.41c-0.48,0.8-1.31,1.64-0.92,2.6l0.86-0.33c0.78,1.94-1.62,2.68-0.53,3.58
		c-1.15,1.36-2.45,3.5-4.07,2.41l-0.31-2.75c0.03,0.8,1.06,1.64,1.52,0.8c-0.68,1.21-2.48-3.7-3.22-0.12l1.14,1.89
		c-1.16,1.38-2.59,4.28-4.02,3.42c0.65,2.71,0.33-0.3,1.35,2.86c-0.89-3.94,3.68,0.16,2.25-3.97c1.05,3.67,1.82,1.56,3.19,4.69
		c-0.04-0.9-0.49-1.73,0.72-1.28c0.06-0.26,0.19-0.6,0.27-0.79c0.03,0.02,0.05,0.03,0.08,0.07c-0.02-0.04-0.04-0.08-0.07-0.11
		c0.05-0.13,0.06-0.17-0.03-0.03c-0.29-0.39-0.52-0.87-0.61-1.38c0.6-2.07,2.51-2,3.17-3.08c0.71,0.43-0.3,1.04,0.09,2l0.97-1.61
		c0.1,2.01,1.9,3.33,0.22,4.51l1.52,0.1c0.89,1.12,2.12,1.57,2.88,0.72c0.71,0.44,1.81-2.21,1.19-0.65l2.38-1.24l0.02,0.5
		c2.35,0.25,4.84-3.31,7.52,0.3c0.79-0.51,1.61-1.12,2.93-0.56l0.26,1.73c1.02-0.61,3.05,1.73,3.49-0.07
		c1.1,4.66,4.93,1.01,6.72,1.85l0.07-2.27c1.23,0.13,2.41-0.51,3.94-1.41l-0.1-2c1.32-1.65,3.39,1.42,5.47,1.22
		c-0.14,0.77-0.67,0.57-1.05,0.1c2.49,4.52,5.25-3.29,7.5,0.01c0.57-0.73,0.97-0.48,1.37,0.03c-0.05,0-0.1,0.04-0.14,0.1
		c0.05,0.02,0.14,0.03,0.23,0.02c0.25,0.35,0.51,0.75,0.78,1.07c-0.24-0.49-0.46-0.89-0.66-1.07c0.43-0.04,1.09-0.3,1.74-0.79
		l0.27,2.14c0.05-0.03,0.1-0.02,0.15-0.06c0.63,0.79,0.51-1.02,0.17-2.63c0.32-0.35,0.62-0.78,0.85-1.29
		c0.51,3.46,1.69-1.18,2.39,2.53c0.44-1.8,3.24-1.36,3.58-5.15c0.03,0.49,0.21,0.73-0.14,0.76c0.72,0.44,1.44,0.86,2.09-0.2
		l0.3,2.73l1.57-3.67c0.95,1.66,1.35,2.63,0.4,4.73c2.28-3.23,1.86-1.22,3.8-4.43l-0.1,1.77c0.7-0.07,1.8-2.43,2.22-0.98
		c1.56,3.36,7.69,0.46,11.68,3.58c-0.78-5.2,1.85,2.34,2-1.69c0.24,1.22,0.79,1.92,0.15,2.99c2.04-1.21,3.06,1.95,4.46-1.45
		c0.24,1.24-0.44,1.8-0.23,2.54c0.17-0.27,0.65-1.07,0.86-0.34s-0.3,1.03-0.62,1.57c2.09-0.21,2.3-4,2.45-7.56
		c1.05,1.68,1.58,1.45,2.34-0.89c0.37,1.17,0.98,2.39-0.31,2.8c0.72,0.17,4.44,1.71,4.51-1.14c0.23,0.72,1.02,0.21,1.21-0.12
		c1.63,0.17,1.78,0.43,3.37,0.16l-0.44-0.46c0.63-3.44,1.33-0.77,2.62-1.19l-0.03,0.36c2.96,2.48,1.28-1.19,4.2,1.64l-0.17-2.14
		c0.27-4.6,2.59,2.71,4.29,0.95l-0.61-1.22c0.92-1.58,2.59,6.27,3.52,6.84c0.2,0.4-0.32,0.64-0.6,0.93c2.43,2.72,0.31-2.8,2.13-3.45
		c0.34,1.51-0.43,3.84,0.79,4.12c0.61,1.23,3.54-4.91,5.2-2.01c-0.37-1.16-0.73-2.33,0.11-3.2c1.29-0.42,3.49,4.4,4.66,0.73
		c0.17,0.31,0.23,0.63,0.24,0.92c0.98-0.95,3.21-1.58,3.8-3.57c0.91,7.4,6.14-3.59,6.11,3.23l3.04-0.37l-0.08,0.7
		c1.94,0.45,2.62-1.18,3.3-2.82c0.45,0.46,0.12,1.1,0.09,1.46c2.84,1.38,3.12,1.09,5.49-2.31l0.25,2.21
		c0.64-1.28,4.1,3.47,6.88,0.89c-0.03,0.25-0.09,0.69-0.3,0.99c3.13-2.6,7.5,6.14,8.64-1.92l2.07-1.99c-2.67-0.63,0.4-3.5-0.7-4.83
		c1.05-0.47,2.72,2.42,1.42,2.84l-0.2-0.41c-0.47,4.2,3.32,1.49,3.25,4.36c5.26-0.21,10.38,2.11,15.3,2.29l-0.57-3.26l1.72,0.18
		c0.45,0.76,0.61,2.55-0.62,2.42c0.64,1.85,2.06-1.55,2.09-2.27c2.4,1.32-0.94,3.81-0.2,3.89l0.99-0.24l-0.22-0.38
		c0.81-1.33,0.88-2.75,2.35-2.59c0.93,0.66,0.48,2.01,0.85,2.14c-0.01,0.23,0.12,0.34,0.56,0.1l2.17,0.28l-0.87-2.58
		c0.96-1.27,2.04,0.13,1.04-2.78c1.47,4.5,8.07,1.61,8.97,3.01c1.35-1.87,2.67-1.85,4.31-1.62c-0.41-0.53-0.65-3.43,0.77-3.08
		c-0.52,5.98,2.59,2.6,3.74,6.9c-1.03-2.86,4.03-0.71,2.42-4.76c1.18,0.49,0.07,2.24,0.97,3.64c2.82-2.32,6.2,1.51,9.68,0.72
		c0.06-0.78-0.53-1.99,0.21-3.15l1.83,3.92c0.69-0.38,0.63-4.53,1.89-1.81c-0.17-0.65-0.44-1.66,0.03-1.9
		c6.81,3.82,13.92-3.14,20.84,4.05c-0.94-1.53-0.31-1.67,0.4-1.73c-0.47-0.37,0.01-1.94-0.08-3l2.89,2.95
		c0.53-2.95,3.1-0.2,3.41-3.02l-0.92,0.51c1.22-3.34-1.71-7.41-1.53-11.68c-1.36,3.78-3.6-5.61-5.84-0.19
		c-0.49-0.87,0.42-1.38,0.16-2.37c-0.57,1.83-1.25,2.21-2.52,1.39l0.14-0.45c-3.57,0.44-5.11-1.36-9.12-2.56l0.3,2.12
		c-0.86-0.29-1.05-0.95-1.45-1.48c-0.99,3.21,2.42,0.18,1.53,3.72c-1.15-4.31-6.08-0.07-6.86-4.96c-1.32-0.03,0.39,2.45-0.94,2.42
		l-0.35-1.32l-0.34,1.7c-0.87-0.28-1.31-1.93-1.34-3.05c0.21,0.13,0.6-0.31,0.83-0.41c-1.13-1.56-3.18,0.53-3.57,0.03l1.28,0.81
		c-3.63,1.24-8.04-0.5-11.54,2.2l0.27,0.99c-2.68,1.85-2.14-1.1-5.08-0.24l0.11-0.24c-0.58,0.99-1.37,1.5-2.17,1.38
		c0.74-1.16-1.39-2.27-0.42-3.56c-2.89,1.98-1.43,1.55-3.35,5.26l-0.44-1.65c-0.65,1.49-0.71,2.28-2.17,2.71
		c1.2-1.42-0.93-2.52,0.41-4.4c-3.08-3.62-4.57,3.66-5.98-1.64c-1.41,4.59,2.66,2.55,1.87,3.52c0.66,1.5-1.17,3.43-2.13,2.97
		c-0.98-0.1-1.67-5.86-4.14-5.78c0.24,0.03,0.26-0.32,0.51-0.3c-0.92-1.18-1.81,1.58-2.94-0.32c-0.64,2.77-1.47-0.16-1.66,3.37
		l2.26-0.81c-1.28,0.92-2.48,5.06-4.6,3.05c0.17-0.71,0.8-1.66,1.23-2.18c-0.62-1.04-1.19,0.7-1.83-0.37
		c0.18-3.54,2.75-0.77,4.13-3.46c-0.66-1.5-2.6,2.55-1.91-1.27c-0.99,4.86-2.43-0.61-4.11,3.1l0.11-2.12
		c-0.27,0.33-0.82,1.33-1.3,1.28l0.88-2.75c-1.36,2.34-2.61-2.05-3.91-0.78c2.72-0.06,0.61,2.55,1.76,4.1
		c-3.35,2.83-1.93-5.54-5.68-4.52c0.51-0.3,1.91,1.27,1.12,2.25c-0.71-0.43-1.66-1.25-2.1-2.35c-2.49,0.44,0.38,2.18-0.68,3.48
		c-0.85-2.58-1.22,1.05-2.31,1.87l-0.01-2.15c-2.84-1.38-0.75,4.49-3.3,2.82l1.08-2.99l-1.33,0.78l0.27-2.45
		c-1.45,1.81-1.9,1.34-3.31,0.65c0.33,1.52-0.19,3.9-1.45,3.97c-0.85-1.27,0.48-2.05-1.3-1.73c0.4-1.35,0.84-3.04,1.62-1.06
		c0.07-0.7,0.39-1.34,0.48-2.04c-0.92-1.46-2.32-0.33-2.96-0.31c0.25,0.08,0.54,0.19,0.7,0.5l-2.58,2.99
		c-0.41-0.81-0.08-1.46,0.24-2.09c-0.53,0.24-0.88,1.22-1.66,1.4c0.2-1.75,0.15-3.56,1.24-4.38l-2.46,1.94
		c-0.17-0.77-1.26-2.1-0.94-2.74c-1.37-1.04-3.35,3.39-5.15,2.03c-0.1,0.35-0.28,0.67-0.66,0.92c-1.7-0.39-3.21-2.54-5.22-0.14
		l-1.14-3.14c-1.58,0.71,1.55,3.96-1.08,5.13c-1.86,1-0.69-2.68-1.34-3.55c-0.92,1.58-2.53,4.8-4.24,2.25
		C294.14,588.1,294.58,588.57,295.11,588.33 M275.66,589.73c0.38-0.45,1.13-1.85,1.41-0.58
		C276.64,591.62,276.31,590.43,275.66,589.73 M246.11,594.91c0.28-0.71,0.71-0.37,1.2,0.45
		C246.96,595.54,246.56,595.46,246.11,594.91 M163.79,609.89c0.02-0.03,0.03-0.05,0.04-0.1
		C164.67,610.64,164.37,610.3,163.79,609.89 M162.04,608.96c-0.17,0.3-0.17,0.6-0.09,0.91c0.12-0.55,0.51-0.58,0.96-0.44
		C162.79,608.87,162.56,608.48,162.04,608.96 M349.43,608.12l-0.34-0.57C349.85,606.93,349.64,607.49,349.43,608.12"/>
	<path class="st1" d="M249.46,591.96c0.11,0.37,0.14,0.76,0.16,1.17C249.77,592.77,249.78,592.35,249.46,591.96"/>
	<path class="st1" d="M307.2,587.21c0.02,0.02,0.04,0.01,0.06,0.02c0.03-0.12,0.05-0.25,0.06-0.38L307.2,587.21z"/>
	<path class="st1" d="M189.07,590.71c0.36,0.3,0.56,0.71,0.69,1.11C189.79,591.29,189.62,590.85,189.07,590.71"/>
	<path class="st1" d="M152.79,612.62l1.12-0.56c-0.54,0.1-0.73-0.37-1-0.71C152.93,611.86,153.14,612.59,152.79,612.62"/>
	<path class="st1" d="M143.09,599.3c-0.17,0.27-0.35,0.03-0.51,0.3l0.04,1C143.33,600.53,143.81,599.72,143.09,599.3"/>
	<path class="st1" d="M151.76,605.47c-0.09-1.81-0.79-1.19-1.58-0.86c0.05,0,0.1-0.02,0.14,0
		C150.1,607.14,150.93,606.3,151.76,605.47"/>
	<path class="st1" d="M150,604.66c-0.24,0.09-0.49,0.14-0.72,0.05C149.19,605.73,149.57,604.93,150,604.66"/>
	<path class="st1" d="M159.83,610.17c-0.37-0.46-0.24,2.32-0.44,1.58C158.97,614.04,161.86,608.95,159.83,610.17"/>
	<polygon class="st1" points="151.12,599.5 151.41,601.74 151.84,599.93 	"/>
	<path class="st1" d="M157.31,601.14l-1.25-0.62c0.02,0.37-0.14,0.59-0.34,0.76C156.49,601.36,157.33,601.81,157.31,601.14"/>
	<path class="st1" d="M155.72,601.28c-0.4-0.04-0.78,0.01-1.01,0.37C154.93,601.63,155.4,601.56,155.72,601.28"/>
	<polygon class="st1" points="152.84,598.83 153.2,599.3 154.09,599.46 	"/>
	<path class="st1" d="M170.76,601.57l1.36-0.64c0.14-0.77-0.23-1.24-0.74-0.93C171.05,600.54,170.54,600.83,170.76,601.57"/>
	<path class="st1" d="M166.63,595.45c0.37,0.46,0.39,0.96,0.6,1.7l0.04-2.77L166.63,595.45z"/>
	<path class="st1" d="M170.61,594.81c0.13-0.77,1.98-2.21,0.25-2.04C170.72,593.53,169.35,594.17,170.61,594.81"/>
	<polygon class="st1" points="191.18,598.31 190.83,598.35 190.88,602.89 	"/>
	<path class="st1" d="M209.32,587.43c-1.62-1.09-0.39,2.81-1.85,1.45c-0.38,1.07,1.19,1.11,0.81,2.04
		C209.25,589.79,209.76,590.42,209.32,587.43"/>
	<path class="st1" d="M208.27,590.92c-0.16,0.17-0.32,0.39-0.5,0.69C208.06,591.32,208.19,591.1,208.27,590.92"/>
	<polygon class="st1" points="412.95,610.42 413.99,611.37 413.32,609.84 	"/>
	<path class="st1" d="M414.95,607.05l0.24,2.89l0.62-2.62C415.58,607.45,415.12,607.7,414.95,607.05"/>
	<path class="st1" d="M272.77,583.89l-0.08,0.7c0.16,0.76,0.41,0.81,0.89,0.93L272.77,583.89z"/>
	<polygon class="st1" points="286.89,586.06 286.64,586 287.1,588.62 	"/>
	<path class="st1" d="M298.73,582.72c-0.49-0.1-1.05,0.47-1.54,0.37C298.24,582.61,298.86,585.99,298.73,582.72"/>
	<path class="st1" d="M1737.45,588.63c0.47,0.17,0.3-1.71,0.37-2.05C1737.04,587,1737.47,589.11,1737.45,588.63"/>
	<polygon class="st1" points="1729.75,592.87 1729.89,592.1 1728.75,593.98 	"/>
	<path class="st1" d="M1722.55,592.84c0.68,3.18,2.61-0.51,3.89,0.62l0.21,0.72l0.58-2.56
		C1725.68,592.03,1723.65,593.73,1722.55,592.84"/>
	<path class="st1" d="M1718.71,585.94c0.24,1.25-0.83,1.07,0.9,0.39c-0.09-0.13-0.11-0.22-0.17-0.31
		C1719.29,586.04,1719.08,586.04,1718.71,585.94"/>
	<path class="st1" d="M1719.44,586.02C1720.2,585.93,1718.95,584.98,1719.44,586.02"/>
	<path class="st1" d="M1715.95,586.73l1-1.11c-0.21-0.73-1.1-0.9-0.77-1.42C1715.15,584.8,1715.37,585.52,1715.95,586.73"/>
	<path class="st1" d="M1715,589.05l0.52-0.47C1715.43,588.28,1715.29,588.17,1715,589.05"/>
	<path class="st1" d="M1716.61,587.6l-1.1,0.99c0.15,0.51,0.16,1.54,0.51-0.36C1715.93,589.18,1716.15,588.27,1716.61,587.6"/>
	<path class="st1" d="M1717.24,588.09c0.56,0.69,1.29,1.12,0.28,2.23C1719.42,589.88,1719.14,587.63,1717.24,588.09"/>
	<path class="st1" d="M1722.19,596.13l0.75,0.93l0.64-1.06C1723.26,596.52,1722.14,595.13,1722.19,596.13"/>
	<path class="st1" d="M1709.72,585.08c-0.06,0.68,0.34,1.81,0.41,2.68l0.74-0.78C1710.49,586.52,1709.77,586.08,1709.72,585.08"/>
	<path class="st1" d="M1710.13,587.76l-1.1,1.17C1710.02,589.05,1710.19,588.5,1710.13,587.76"/>
	<polygon class="st1" points="1714.82,592.59 1716.63,590.14 1714.47,592.62 	"/>
	<polygon class="st1" points="1705.51,584.99 1706.14,583.42 1705.02,585.8 	"/>
	<path class="st1" d="M1702.71,585.27c0.47-1.3-0.63-2.21-0.15-3c-0.76,0.23-1.4,1.34-1.99,2.35
		C1701.19,584.06,1701.86,584.21,1702.71,585.27"/>
	<path class="st1" d="M1699.59,586.08c0.31-0.31,0.63-0.86,0.98-1.46C1700.24,584.92,1699.92,585.35,1699.59,586.08"/>
	<path class="st1" d="M1707.15,588.58c-0.09-0.41-0.25-1.48-0.87-1.94l0.43,1.91C1706.85,588.57,1707,588.57,1707.15,588.58"/>
	<path class="st1" d="M1706.73,588.62l-0.01-0.07c-0.47-0.03-0.8-0.08-0.94-0.1C1705.9,588.46,1706.18,588.51,1706.73,588.62"/>
	<path class="st1" d="M1707.26,588.59c-0.04-0.01-0.07-0.01-0.11-0.01C1707.19,588.77,1707.22,588.84,1707.26,588.59"/>
	<path class="st1" d="M1711.93,590.87c-0.65,1.06-2,2.21-0.69,3.84C1711.7,593.39,1710.95,592.47,1711.93,590.87"/>
	<path class="st1" d="M1707.8,590.97l1.17,0.44c-0.03-0.51-0.24-1.25,0.09-1.77L1707.8,590.97z"/>
	<polygon class="st1" points="1707.22,591.58 1707.8,590.97 1707.36,590.81 	"/>
	<path class="st1" d="M1701.6,587.87c-0.51,0.83-1.06,0.91-1.69,1.03c0.67,0.37,1.36,0.58,2.02,0.58
		C1702.03,588.88,1702.32,587.8,1701.6,587.87"/>
	<path class="st1" d="M1704.1,588.4c-0.04,0.04-0.08,0.07-0.11,0.1C1704.05,588.67,1704.1,588.72,1704.1,588.4"/>
	<path class="st1" d="M1693.75,588.89c0.03,0.1,0.07,0.24,0.1,0.35c0.01-0.11,0.01-0.22,0.02-0.33L1693.75,588.89z"/>
	<path class="st1" d="M1702.05,589.83c0.5,0.37,0.8-0.1,1.09-0.69c-0.38,0.19-0.78,0.32-1.21,0.33
		C1701.89,589.74,1701.89,589.93,1702.05,589.83"/>
	<path class="st1" d="M1697.87,586.98c0.27,0.39,0.56,0.73,0.88,1.05C1698.49,587.42,1697.97,586.48,1697.87,586.98"/>
	<path class="st1" d="M1703.81,587.98c0.02-0.04,0.05-0.07,0.07-0.09C1703.72,587.48,1703.74,587.69,1703.81,587.98"/>
	<path class="st1" d="M1703.81,587.98c-0.26,0.28-0.47,0.74-0.67,1.17c0.31-0.16,0.59-0.36,0.84-0.65
		C1703.92,588.37,1703.86,588.16,1703.81,587.98"/>
	<path class="st1" d="M1691.89,601.13c0.09-1.77,1.41-3.4,2.55-1.51c1.13-1.32,0.39-7.14-0.59-10.39c-0.03,0.77-0.03,1.48-1.19,2.53
		c0.41,0.97,2.57,2.26,1.59,3.85c-1.53,0.92-1.26-0.62-2-1.55c0.63,2.2-1.95,3.2-1.62,6.43l1.35-1.13
		C1692,599.87,1691.51,600.67,1691.89,601.13"/>
	<path class="st1" d="M1696.06,589.42l0.48-0.22c-0.54-0.31-0.93-1.02-1.65-2.4c-0.79,0.85-0.96,1.52-1.02,2.1l2.35,0.24
		L1696.06,589.42z"/>
	<path class="st1" d="M1698.68,589.19c-0.37,1.92-1.52,2.74-0.82,4.82c1.4-0.13,0.98-1.6,1.82-2.44c-2.26,0.48,0.65-1.07-0.98-2.16
		c0.44-0.33,0.84-0.43,1.22-0.51c-0.41-0.24-0.8-0.53-1.16-0.88c0.02,0.04,0.03,0.08,0.05,0.12l0.01-0.01c0,0.01,0,0.02,0,0.03
		c0.1,0.24,0.13,0.38,0.02,0.25c-0.01,0.03-0.03,0.03-0.05,0.03C1698.77,588.72,1698.72,588.96,1698.68,589.19
		c-0.65-0.41-0.1-0.51,0.1-0.74c0-0.1,0.03-0.18,0.03-0.29c0-0.01,0-0.02,0-0.02l-2.26,1.05
		C1697.01,589.46,1697.61,589.41,1698.68,589.19"/>
	<path class="st1" d="M1710.03,598.83c-0.07-0.17-0.07-0.31-0.07-0.44C1709.81,598.62,1709.75,598.79,1710.03,598.83"/>
	<path class="st1" d="M1709.1,597.67c0.17-0.27,0.3-1.04,0.83-0.84c0.47,0.58,0,0.92,0.02,1.55c0.32-0.51,1.13-1.38,0.12-2.31
		l-0.16,0.26c-0.91-0.66-2.08-3.06-1.92-3.32C1708.26,594.75,1708.49,595.98,1709.1,597.67"/>
	<path class="st1" d="M1703.82,593.93l-1.88,0.94l0.96,1.67l-0.05-1C1703.92,595.92,1703.69,594.69,1703.82,593.93"/>
	<polygon class="st1" points="1693.54,587.93 1693.79,585.9 1692.7,588.77 	"/>
	<polygon class="st1" points="1691.09,588.17 1691.18,586.41 1690.53,587.48 	"/>
	<path class="st1" d="M1552.97,610.09l-0.55,0.51C1552.68,610.44,1552.84,610.27,1552.97,610.09"/>
	<path class="st1" d="M1556.98,610.21l0.1-0.87C1556.89,609.83,1556.81,610.17,1556.98,610.21"/>
	<path class="st1" d="M1630.98,588.37c-0.81-1.65-1.71-4.21-1.61-2.22l0.24,1.94C1630.18,587.74,1630.61,587.96,1630.98,588.37"/>
	<path class="st1" d="M1589.81,599.93c0.07,0.19,0.16,0.39,0.24,0.59c0.2-0.66,0.38-1.27,0.54-1.85
		C1590.36,599.07,1590.08,599.49,1589.81,599.93"/>
	<path class="st1" d="M1589.24,607.95l-1.06-1.26C1588.42,607.13,1588.76,607.55,1589.24,607.95"/>
	<path class="st1" d="M1531.09,612.14l-0.64,1.97C1531.45,614.1,1531.01,613.11,1531.09,612.14"/>
	<path class="st1" d="M1666.02,588.89c-0.7-0.75-1.25-1.07-1.74-1.17C1665.12,588.84,1665.8,590.5,1666.02,588.89"/>
	<path class="st1" d="M1554.55,589.54c-0.34,0.36-0.48,0.75-0.47,1.18C1554.42,590.39,1554.62,590.01,1554.55,589.54"/>
	<path class="st1" d="M1662.28,587.73c0.12,0.19,0.24,0.29,0.37,0.45c0.5-0.32,1.02-0.58,1.63-0.46
		C1663.67,586.89,1662.96,586.39,1662.28,587.73"/>
	<path class="st1" d="M1451.73,610.54c-0.06-0.09-0.12-0.13-0.18-0.24C1451.53,610.57,1451.61,610.58,1451.73,610.54"/>
	<path class="st1" d="M1428.6,591c0.23-0.11,0.6-0.11,0.95-0.14C1429.38,590.72,1429.1,590.74,1428.6,591"/>
	<path class="st1" d="M1681.24,587.33C1681.76,587.21,1681.33,587.12,1681.24,587.33"/>
	<path class="st1" d="M1683.77,594.99c-0.11,0.22-0.2,0.5-0.21,0.94C1683.6,595.46,1683.67,595.16,1683.77,594.99"/>
	<path class="st1" d="M1657.11,599.77c-0.01,0-0.03,0-0.04,0C1657.21,600.15,1657.19,600.08,1657.11,599.77"/>
	<path class="st1" d="M1682.02,588.21c-0.19-0.24-0.42-0.44-0.66-0.58C1681.46,587.79,1681.67,587.97,1682.02,588.21"/>
	<path class="st1" d="M1681.92,587.29c0.18,0.1,0.32,0.14,0.46,0.19C1682.44,587.16,1682.38,586.95,1681.92,587.29"/>
	<path class="st1" d="M1680.52,587.43c0.3-0.03,0.57,0.07,0.84,0.2c-0.1-0.12-0.14-0.24-0.12-0.3
		C1681.09,587.36,1680.88,587.4,1680.52,587.43"/>
	<path class="st1" d="M1494.25,605.35c-0.03-0.06-0.07-0.1-0.11-0.18C1493.61,605.98,1493.84,605.85,1494.25,605.35"/>
	<path class="st1" d="M1617.47,608.48c0.03-0.02,0.03-0.07,0.06-0.1c-0.03-0.02-0.06-0.04-0.08-0.06L1617.47,608.48z"/>
	<path class="st1" d="M1615.6,609.92c0.79-2.41,1.25-2.11,1.85-1.6l-0.62-5.59L1615.6,609.92z"/>
	<path class="st1" d="M1543.38,610.65l1.31,1.73c-1.58,2.86-2.72,1.87-1.49,4.32c0.19-6.06,5.09-0.62,5.27-6.68l0.86,1.27
		c-0.25-0.06-0.29,0.3-0.53,0.24c1.68,2.89,1.25-4.38,3.41-3.52c0.75,0.46,1.28,1.34,0.77,2.07l1.68-1.5
		c0.49,0.11,0.37,1.17-0.12,1.05l2.57-0.48l-0.03,0.18c0.37-0.96,1.2-2.42,1.6-3.05c0.65,0.87-0.33,0.64-0.16,1.4l1.42-1.47
		c0.58,1.57-0.59,3.09-1.58,2.87c1.32,6.05,1.18-1.53,4.04,2.01l-1.34,0.77c0.86,3.44,1.91,2.19,3.42,4.34
		c-0.36-1.12-3.03-5.4-1.49-6.92c0.44,0.46,1,0.68,1.83-0.54c0.01,2.15,0.82,1.62,1.83,1.51l-0.07,2.85
		c1.09-0.82,1.01-2.27,1.66-3.56c1.22,0.28,1.47,2.49,1.77,4.36c1.96,0.45-1.35-3.55,0.96-4.09c1.63,1.1,2.77-0.07,4.72-1.78
		c1.14,0.98-0.2,1.74,0.21,2.56l1.01-2.27c0.24,0.05,0.17,0.75,0.13,1.11c0.85-0.89,0.07-2.85,1.41-3.63
		c0.36-3.15,2.75,4.58,4.41,1.02c0.41,0.81-0.2,1.75-0.07,2.85c2.27-2.34,1.95-1.7,3.81-4.86l1.59,1.87
		c-1.17-2.14,0.32-4.68,1.63-6.76c-0.41-1.03-0.77-1.94-1-2.37l2.08-1.53c0.26,0.47,0.05,1.46-0.3,2.64
		c0.14-0.24,0.27-0.46,0.38-0.68c0.75,1.06,0.36,2.7-0.18,4.3c-0.26-0.56-0.51-1.17-0.75-1.76c-0.51,1.73-1,3.65-0.89,5.33
		c0.14-0.33,0.4-0.61,0.68-0.77c-0.13,0.46-0.23,0.89-0.16,1.17c0.07,0.31,0.29-0.33,0.63-1.05l0.47,3.18l0.11-1.26l2.73,1.99
		c1.95-3.2,3.65-7.91,6.75-9.23c-0.77,2.34-0.17,3.81-0.2,6.58c-0.85-2.93-2.41,1.25-4.01,0.65c0.83,0.3,0.65,1.62,0.44,2.08
		l2.86-2.66c-0.06,2.27,0.61,1.7,1.36,2.63c-0.56-4.47,2.14-2.98,3.3-4.35c0.07,1.5-0.21,3.03-1.63,2.68
		c1.57,3.36,2.02-5.26,3.57-2.4c-0.35,0.03-0.54-0.19-0.68,0.57c0.82-1.32,2.8-0.28,2.33,1.03l-0.34,0.03
		c2.3,0.53,7.02,0.03,7.36-3.77c0.02,0.5-0.3,4.58-0.44,5.34l4.11-12.77c-0.36,3.26,1.03,11.03-0.88,12.87
		c0.54,0.46,1.22,1.01,2.38-0.14c-0.37-0.47-0.93-4.72-0.42-5.01c1.41,3.63,0.97,1.94,2.71,5.03c-0.56-0.7,0.06-5.81,0.95-5.64
		c-0.14,0.76,0.07,5.05-0.25,5.58l2.21-5.02c-0.55,0.9-0.09,4.24,0.4,5.67c-0.23-0.98,1.91,0.1,2.5-0.4l-0.94-1.16
		c2.49,0.76,2.46-7.06,4.93-6.8c-0.3,1.04-0.74,6.38,0.52,7.02c0.58-2.58,2.55-12.37,4.74-14.35l0.41,1.47l1.68-1.67
		c-1.05,3.86-3.98,12-5.58,15.17c0.93,1.16,0.26,1.73,1.66,1.6c0.49,1.38-0.76,2.08-1.17,2.16l3.25,0.9
		c-0.14-3.01,2.49-3.02,2.37-5.51l-3.53,3.1c-0.15-2.99,2.04-8.52,4.34-7.98c0.58,1.19-0.44,5.34-0.39,6.34
		c0.3-1.03,2.19-1.97,2.4-1.23l-0.97,1.59c1.28,1.13,2.09-3.97,3.63-1.12c0.53,0.19,1.59,3.87,1.68,2.09
		c-0.87-3.43-1.04-14.02-0.46-16.59c0.19,0.24,2.79,3.28,3.4,4.97c0.88,2.68-1.32,6.4-0.57,8.7c0.03-0.81,0.52-1.83,0.72-2.15
		c0.56,0.7-0.23,2.54,0.98,2.17c0.2-3.04,2.47,0.25,0.57-2.57c1.19-0.87,1.26,0.63,2.66,0.49c-0.44-1.96,1.25-6.69,2.44-7.56
		c-0.07,0.78,0.2,1.79,0.32,2.24c2.43,0.28,3.74,1.66,6.01,1.68c0.21,0.74,1.31,1.63,0.84,2.94c0.33-0.53,0.62-1.56,1.32-1.64
		c1.36,2.62-1.56,0.41-0.53,3.56c0.09-1.76,1.81-2.44,2.81-3.54c-0.31-2.73-2.3-0.52-3.3,0.58c0-3.77,1.73-7.71,4.11-9.46
		c1.89-0.93,0.81,2.44,1.15,1.9c3.54,0.65,3.02-6.57,5.96-3.86c1.17,2.4,0.05,4.78,0.31,6.5c-1.54,0.91-2.36-1.52-3.4-1.43
		l1.28,1.14c-0.48,0.79-1.51,1.4-2.07,0.71c0.98,2.15,5.98,0.42,8.72,2.41c0.49-0.8,1.32-1.64,0.93-2.61l-0.86,0.34
		c-0.8-1.94,1.63-2.68,0.53-3.58c1.16-1.36,2.46-3.5,4.09-2.41l0.31,2.75c-0.03-0.81-1.07-1.64-1.53-0.8
		c0.68-1.21,2.51,3.7,3.25,0.12l-1.15-1.89c1.16-1.39,2.61-4.28,4.05-3.43c-0.66-2.7-0.33,0.31-1.36-2.85
		c0.89,3.93-3.7-0.17-2.28,3.97c-1.05-3.66-1.82-1.55-3.2-4.68c0.04,0.9,0.49,1.73-0.73,1.28c-0.05,0.26-0.18,0.59-0.27,0.79
		c-0.04-0.03-0.05-0.03-0.08-0.07c0.03,0.04,0.04,0.08,0.07,0.11c-0.06,0.13-0.06,0.16,0.03,0.03c0.28,0.39,0.52,0.86,0.62,1.37
		c-0.61,2.07-2.54,2.01-3.19,3.09c-0.72-0.44,0.31-1.04-0.1-2l-0.98,1.61c-0.09-2.01-1.91-3.33-0.21-4.52l-1.53-0.09
		c-0.9-1.12-2.14-1.57-2.9-0.72c-0.72-0.44-1.82,2.21-1.19,0.65l-2.4,1.24l-0.02-0.51c-2.37-0.25-4.87,3.32-7.57-0.3
		c-0.8,0.51-1.62,1.12-2.95,0.56l-0.26-1.73c-1.02,0.61-3.07-1.73-3.51,0.07c-1.1-4.66-4.96-1.02-6.76-1.85l-0.07,2.27
		c-1.23-0.13-2.43,0.51-3.96,1.42l0.1,2.01c-1.32,1.64-3.4-1.42-5.5-1.22c0.14-0.77,0.67-0.57,1.05-0.1c-2.5-4.52-5.28,3.29-7.55,0
		c-0.57,0.72-0.97,0.48-1.37-0.03c0.05-0.01,0.1-0.04,0.13-0.1c-0.06-0.02-0.14-0.03-0.23-0.02c-0.25-0.35-0.51-0.75-0.78-1.07
		c0.24,0.49,0.46,0.89,0.66,1.07c-0.43,0.04-1.09,0.29-1.74,0.79l-0.27-2.15c-0.06,0.03-0.1,0.03-0.15,0.07
		c-0.64-0.8-0.51,1.01-0.17,2.63c-0.33,0.35-0.63,0.78-0.86,1.29c-0.52-3.47-1.7,1.17-2.41-2.53c-0.44,1.8-3.26,1.36-3.6,5.15
		c-0.02-0.5-0.21-0.73,0.14-0.76c-0.72-0.44-1.44-0.86-2.1,0.2l-0.3-2.73l-1.58,3.67c-0.96-1.67-1.36-2.63-0.41-4.73
		c-2.3,3.23-1.87,1.22-3.82,4.42l0.1-1.76c-0.7,0.07-1.81,2.43-2.24,0.98c-1.57-3.36-7.74-0.46-11.75-3.58
		c0.78,5.2-1.87-2.34-2.03,1.69c-0.24-1.23-0.8-1.92-0.14-2.99c-2.05,1.2-3.08-1.95-4.49,1.45c-0.23-1.24,0.44-1.8,0.23-2.54
		c-0.17,0.27-0.65,1.07-0.86,0.34s0.3-1.04,0.62-1.57c-2.1,0.2-2.31,4-2.46,7.56c-1.06-1.68-1.59-1.45-2.36,0.89
		c-0.37-1.17-0.98-2.39,0.32-2.8c-0.73-0.17-4.47-1.71-4.55,1.14c-0.23-0.72-1.02-0.21-1.21,0.12c-1.64-0.17-1.79-0.44-3.4-0.16
		l0.45,0.46c-0.64,3.44-1.34,0.77-2.64,1.19l0.03-0.36c-2.98-2.48-1.29,1.19-4.22-1.64l0.16,2.14c-0.27,4.6-2.6-2.71-4.31-0.96
		l0.62,1.23c-0.93,1.57-2.61-6.27-3.54-6.84c-0.2-0.4,0.32-0.64,0.61-0.93c-2.45-2.72-0.31,2.8-2.14,3.45
		c-0.34-1.52,0.43-3.84-0.79-4.13c-0.61-1.22-3.57,4.92-5.24,2.01c0.37,1.17,0.74,2.34-0.11,3.21c-1.3,0.42-3.52-4.4-4.69-0.73
		c-0.16-0.31-0.23-0.63-0.24-0.92c-0.99,0.95-3.23,1.58-3.82,3.57c-0.92-7.4-6.18,3.59-6.16-3.23l-3.06,0.37l0.08-0.69
		c-1.96-0.45-2.65,1.18-3.33,2.82c-0.45-0.46-0.12-1.1-0.09-1.46c-2.85-1.38-3.14-1.09-5.53,2.31l-0.25-2.21
		c-0.64,1.29-4.13-3.46-6.92-0.88c0.03-0.26,0.08-0.69,0.3-1c-3.14,2.6-7.54-6.14-8.69,1.93l-2.08,1.98c2.69,0.64-0.4,3.5,0.7,4.84
		c-1.06,0.47-2.73-2.43-1.43-2.84l0.2,0.4c0.47-4.19-3.34-1.49-3.27-4.35c-5.29,0.21-10.45-2.12-15.41-2.29l0.57,3.26l-1.73-0.18
		c-0.45-0.76-0.61-2.55,0.63-2.42c-0.65-1.85-2.07,1.55-2.1,2.27c-2.41-1.33,0.94-3.81,0.2-3.89l-1.01,0.24l0.23,0.38
		c-0.81,1.33-0.89,2.75-2.37,2.59c-0.94-0.66-0.48-2.01-0.85-2.14c0-0.23-0.13-0.34-0.57-0.1l-2.18-0.28l0.87,2.58
		c-0.97,1.27-2.05-0.14-1.05,2.78c-1.47-4.5-8.12-1.61-9.03-3.01c-1.35,1.87-2.68,1.85-4.34,1.61c0.41,0.54,0.66,3.43-0.77,3.09
		c0.52-5.98-2.61-2.6-3.77-6.9c1.03,2.86-4.05,0.71-2.43,4.76c-1.19-0.49-0.08-2.24-0.98-3.64c-2.83,2.31-6.24-1.51-9.74-0.72
		c-0.05,0.78,0.53,1.99-0.22,3.15l-1.85-3.92c-0.69,0.38-0.64,4.53-1.9,1.8c0.18,0.66,0.44,1.66-0.02,1.91
		c-6.86-3.83-14.02,3.14-20.98-4.05c0.94,1.53,0.31,1.67-0.41,1.73c0.47,0.37-0.01,1.94,0.08,3.01l-2.92-2.95
		c-0.53,2.95-3.12,0.2-3.43,3.02l0.92-0.51c-1.23,3.34,1.72,7.41,1.54,11.68c1.38-3.78,3.63,5.61,5.88,0.19
		c0.5,0.87-0.43,1.38-0.16,2.37c0.58-1.83,1.26-2.21,2.55-1.39l-0.14,0.45c3.59-0.44,5.13,1.36,9.17,2.56l-0.3-2.12
		c0.87,0.29,1.05,0.95,1.46,1.48c1-3.21-2.44-0.18-1.53-3.72c1.15,4.31,6.12,0.07,6.9,4.96c1.33,0.03-0.39-2.45,0.94-2.42l0.35,1.33
		l0.34-1.71c0.88,0.29,1.32,1.94,1.35,3.06c-0.21-0.13-0.6,0.31-0.83,0.41c1.14,1.55,3.2-0.53,3.59-0.03l-1.29-0.81
		c3.65-1.24,8.1,0.5,11.61-2.2l-0.27-0.99c2.69-1.85,2.16,1.09,5.11,0.24l-0.1,0.24c0.59-0.99,1.38-1.5,2.18-1.38
		c-0.75,1.16,1.41,2.27,0.43,3.56c2.92-1.98,1.44-1.56,3.36-5.26l0.45,1.66c0.65-1.5,0.71-2.28,2.18-2.71
		c-1.21,1.41,0.94,2.52-0.41,4.39c3.1,3.63,4.6-3.65,6.02,1.64c1.42-4.58-2.68-2.54-1.89-3.52c-0.66-1.5,1.18-3.43,2.14-2.96
		c0.99,0.1,1.68,5.86,4.17,5.77c-0.24-0.02-0.26,0.33-0.51,0.31c0.93,1.17,1.82-1.58,2.96,0.32c0.64-2.77,1.48,0.16,1.66-3.37
		l-2.28,0.81c1.29-0.92,2.51-5.06,4.63-3.05c-0.17,0.71-0.8,1.65-1.23,2.17c0.62,1.05,1.19-0.69,1.84,0.38
		c-0.18,3.54-2.77,0.77-4.15,3.46c0.67,1.5,2.62-2.55,1.92,1.27c1-4.86,2.45,0.61,4.14-3.1l-0.11,2.12
		c0.27-0.33,0.81-1.33,1.31-1.28l-0.89,2.75c1.37-2.34,2.63,2.05,3.94,0.78c-2.74,0.06-0.61-2.55-1.77-4.1
		c3.37-2.83,1.94,5.53,5.72,4.52c-0.51,0.3-1.92-1.27-1.12-2.25c0.71,0.43,1.67,1.24,2.11,2.35c2.5-0.44-0.39-2.18,0.68-3.48
		c0.85,2.58,1.23-1.05,2.32-1.87l0.01,2.15c2.86,1.38,0.76-4.49,3.33-2.82l-1.09,2.99l1.34-0.78l-0.27,2.45
		c1.46-1.81,1.91-1.34,3.34-0.66c-0.33-1.52,0.19-3.9,1.45-3.97c0.86,1.27-0.48,2.04,1.31,1.73c-0.4,1.35-0.85,3.04-1.63,1.05
		c-0.08,0.71-0.4,1.35-0.48,2.05c0.93,1.46,2.34,0.33,2.98,0.31c-0.25-0.09-0.54-0.19-0.7-0.51l2.6-2.98
		c0.41,0.8,0.08,1.46-0.24,2.09c0.53-0.24,0.89-1.22,1.66-1.4c-0.2,1.74-0.15,3.56-1.25,4.38l2.47-1.94
		c0.17,0.77,1.27,2.09,0.95,2.74c1.38,1.03,3.36-3.4,5.19-2.03c0.1-0.35,0.28-0.67,0.67-0.92c1.71,0.39,3.22,2.54,5.25,0.14
		l1.15,3.14c1.59-0.71-1.56-3.96,1.09-5.13c1.87-1,0.7,2.68,1.36,3.55c0.93-1.59,2.55-4.8,4.26-2.25
		C1544.35,610.88,1543.91,610.41,1543.38,610.65 M1562.95,609.26c-0.38,0.45-1.14,1.85-1.42,0.58
		C1561.97,607.37,1562.3,608.54,1562.95,609.26 M1592.69,604.07c-0.28,0.71-0.72,0.36-1.21-0.45
		C1591.84,603.44,1592.24,603.52,1592.69,604.07 M1675.55,589.09c-0.02,0.03-0.03,0.05-0.04,0.1
		C1674.66,588.35,1674.97,588.68,1675.55,589.09 M1677.31,590.02c0.17-0.31,0.16-0.6,0.09-0.91c-0.13,0.55-0.52,0.58-0.97,0.44
		C1676.56,590.11,1676.78,590.5,1677.31,590.02 M1488.7,590.87l0.34,0.56C1488.27,592.05,1488.49,591.49,1488.7,590.87"/>
	<path class="st1" d="M1589.32,607.02c-0.11-0.37-0.14-0.76-0.16-1.17C1589,606.21,1589,606.63,1589.32,607.02"/>
	<path class="st1" d="M1531.21,611.78c-0.02-0.02-0.04-0.01-0.06-0.02c-0.04,0.12-0.05,0.25-0.06,0.38L1531.21,611.78z"/>
	<path class="st1" d="M1650.1,608.27c-0.36-0.3-0.56-0.71-0.7-1.12C1649.38,607.69,1649.55,608.13,1650.1,608.27"/>
	<path class="st1" d="M1686.61,586.36l-1.12,0.56c0.54-0.1,0.74,0.37,1.02,0.71C1686.48,587.12,1686.26,586.4,1686.61,586.36"/>
	<path class="st1" d="M1696.38,599.68c0.17-0.26,0.34-0.03,0.51-0.29l-0.04-1.01C1696.14,598.45,1695.66,599.26,1696.38,599.68"/>
	<path class="st1" d="M1687.66,593.52c0.09,1.81,0.8,1.19,1.58,0.86c-0.04,0-0.09,0.02-0.14,0
		C1689.33,591.84,1688.49,592.68,1687.66,593.52"/>
	<path class="st1" d="M1689.42,594.31c0.24-0.08,0.49-0.13,0.73-0.04C1690.25,593.26,1689.86,594.06,1689.42,594.31"/>
	<path class="st1" d="M1679.54,588.82c0.37,0.46,0.24-2.32,0.44-1.58C1680.4,584.93,1677.49,590.03,1679.54,588.82"/>
	<polygon class="st1" points="1688.29,599.48 1688.01,597.25 1687.57,599.05 	"/>
	<path class="st1" d="M1682.07,597.84l1.26,0.62c-0.02-0.37,0.14-0.6,0.34-0.76C1682.89,597.62,1682.04,597.18,1682.07,597.84"/>
	<path class="st1" d="M1683.67,597.69c0.4,0.05,0.79,0,1.02-0.37C1684.46,597.35,1684,597.42,1683.67,597.69"/>
	<polygon class="st1" points="1686.58,600.15 1686.21,599.69 1685.31,599.52 	"/>
	<path class="st1" d="M1668.54,597.4l-1.38,0.64c-0.14,0.77,0.24,1.23,0.75,0.93C1668.24,598.44,1668.75,598.15,1668.54,597.4"/>
	<path class="st1" d="M1672.69,603.53c-0.37-0.46-0.4-0.97-0.61-1.7l-0.04,2.77L1672.69,603.53z"/>
	<path class="st1" d="M1668.69,604.18c-0.14,0.77-2,2.21-0.25,2.04C1668.58,605.45,1669.95,604.81,1668.69,604.18"/>
	<polygon class="st1" points="1647.98,600.67 1648.33,600.64 1648.28,596.1 	"/>
	<path class="st1" d="M1629.73,611.54c1.63,1.09,0.38-2.8,1.86-1.44c0.38-1.07-1.2-1.11-0.81-2.04
		C1629.79,609.2,1629.28,608.55,1629.73,611.54"/>
	<path class="st1" d="M1630.78,608.06c0.16-0.18,0.32-0.4,0.5-0.69C1630.99,607.65,1630.86,607.87,1630.78,608.06"/>
	<polygon class="st1" points="1424.77,588.56 1423.72,587.62 1424.4,589.14 	"/>
	<path class="st1" d="M1422.76,591.93l-0.25-2.89l-0.63,2.61C1422.12,591.53,1422.58,591.28,1422.76,591.93"/>
	<path class="st1" d="M1565.85,615.09l0.08-0.69c-0.17-0.76-0.41-0.82-0.9-0.93L1565.85,615.09z"/>
	<polygon class="st1" points="1551.65,612.93 1551.89,612.98 1551.44,610.37 	"/>
	<path class="st1" d="M1539.73,616.27c0.49,0.1,1.06-0.47,1.55-0.37C1540.22,616.37,1539.6,613,1539.73,616.27"/>
	<path class="st1" d="M200.79,635.81c-0.31-0.09-0.2,0.85-0.25,1.02C201.07,636.63,200.77,635.56,200.79,635.81"/>
	<polygon class="st1" points="206.03,633.68 205.94,634.07 206.71,633.13 	"/>
	<path class="st1" d="M210.94,633.7c-0.46-1.59-1.78,0.26-2.65-0.31l-0.14-0.37l-0.4,1.29C208.81,634.11,210.2,633.25,210.94,633.7"
		/>
	<path class="st1" d="M213.56,637.15c-0.16-0.63,0.56-0.54-0.61-0.19c0.06,0.06,0.08,0.1,0.11,0.16
		C213.16,637.11,213.31,637.11,213.56,637.15"/>
	<path class="st1" d="M213.05,637.11C212.54,637.16,213.39,637.63,213.05,637.11"/>
	<path class="st1" d="M215.44,636.76l-0.68,0.55c0.14,0.37,0.75,0.45,0.52,0.71C215.98,637.72,215.84,637.36,215.44,636.76"/>
	<path class="st1" d="M216.09,635.59l-0.35,0.24C215.8,635.98,215.89,636.04,216.09,635.59"/>
	<path class="st1" d="M214.99,636.32l0.75-0.5c-0.1-0.25-0.1-0.78-0.34,0.18C215.45,635.54,215.3,635.98,214.99,636.32"/>
	<path class="st1" d="M214.56,636.08c-0.38-0.35-0.88-0.56-0.19-1.12C213.07,635.18,213.26,636.31,214.56,636.08"/>
	<path class="st1" d="M211.19,632.05l-0.51-0.46l-0.44,0.53C210.46,631.86,211.22,632.56,211.19,632.05"/>
	<path class="st1" d="M219.68,637.58c0.04-0.33-0.23-0.9-0.28-1.33l-0.51,0.39C219.16,636.86,219.65,637.08,219.68,637.58"/>
	<path class="st1" d="M219.4,636.24l0.75-0.58C219.48,635.59,219.36,635.87,219.4,636.24"/>
	<polygon class="st1" points="216.21,633.82 214.97,635.05 216.45,633.81 	"/>
	<polygon class="st1" points="222.56,637.62 222.13,638.41 222.89,637.22 	"/>
	<path class="st1" d="M224.46,637.48c-0.31,0.65,0.44,1.11,0.1,1.5c0.52-0.11,0.96-0.67,1.36-1.18
		C225.49,638.09,225.04,638.01,224.46,637.48"/>
	<path class="st1" d="M226.59,637.08c-0.21,0.16-0.43,0.43-0.67,0.73C226.14,637.66,226.36,637.45,226.59,637.08"/>
	<path class="st1" d="M221.44,635.83c0.06,0.21,0.17,0.74,0.59,0.98l-0.3-0.96C221.64,635.83,221.54,635.83,221.44,635.83"/>
	<path class="st1" d="M221.72,635.82l0.01,0.03c0.32,0.02,0.54,0.04,0.64,0.05C222.29,635.89,222.09,635.86,221.72,635.82"/>
	<path class="st1" d="M221.36,635.83c0.03,0,0.05,0,0.07,0C221.41,635.74,221.39,635.7,221.36,635.83"/>
	<path class="st1" d="M218.18,634.68c0.44-0.53,1.36-1.11,0.48-1.92C218.34,633.43,218.85,633.88,218.18,634.68"/>
	<path class="st1" d="M221,634.63l-0.8-0.22c0.02,0.25,0.16,0.62-0.06,0.88L221,634.63z"/>
	<polygon class="st1" points="221.39,634.33 220.99,634.63 221.29,634.71 	"/>
	<path class="st1" d="M225.22,636.18c0.34-0.41,0.72-0.44,1.15-0.51c-0.46-0.18-0.93-0.29-1.37-0.29
		C224.93,635.69,224.73,636.22,225.22,636.18"/>
	<path class="st1" d="M223.52,635.92c0.02-0.03,0.05-0.03,0.08-0.05C223.55,635.79,223.51,635.76,223.52,635.92"/>
	<path class="st1" d="M230.57,635.68c-0.02-0.05-0.05-0.11-0.07-0.17c-0.01,0.06-0.01,0.1-0.02,0.17H230.57z"/>
	<path class="st1" d="M224.91,635.21c-0.34-0.18-0.55,0.04-0.74,0.34c0.26-0.1,0.53-0.16,0.83-0.17
		C225.02,635.25,225.02,635.16,224.91,635.21"/>
	<path class="st1" d="M227.75,636.64c-0.18-0.2-0.38-0.37-0.59-0.53C227.34,636.41,227.69,636.88,227.75,636.64"/>
	<path class="st1" d="M223.71,636.13c-0.02,0.01-0.03,0.03-0.05,0.04C223.77,636.38,223.75,636.28,223.71,636.13"/>
	<path class="st1" d="M223.71,636.13c0.18-0.14,0.32-0.37,0.45-0.58c-0.21,0.08-0.4,0.17-0.57,0.32
		C223.64,635.93,223.68,636.04,223.71,636.13"/>
	<path class="st1" d="M231.83,629.55c-0.06,0.89-0.96,1.7-1.74,0.76c-0.76,0.66-0.26,3.57,0.41,5.2c0.03-0.38,0.03-0.74,0.81-1.26
		c-0.28-0.49-1.75-1.13-1.09-1.93c1.05-0.45,0.86,0.3,1.37,0.78c-0.44-1.11,1.33-1.6,1.1-3.23l-0.92,0.58
		C231.76,630.19,232.09,629.79,231.83,629.55"/>
	<path class="st1" d="M228.99,635.41l-0.33,0.11c0.37,0.16,0.64,0.51,1.12,1.19c0.54-0.43,0.66-0.75,0.69-1.05l-1.6-0.12
		L228.99,635.41z"/>
	<path class="st1" d="M227.21,635.53c0.25-0.97,1.03-1.38,0.56-2.41c-0.95,0.06-0.67,0.8-1.24,1.22c1.54-0.24-0.44,0.53,0.67,1.08
		c-0.3,0.17-0.58,0.21-0.83,0.25c0.27,0.11,0.54,0.26,0.8,0.44c-0.02-0.02-0.03-0.04-0.04-0.05l0,0v-0.02
		c-0.07-0.12-0.09-0.19-0.01-0.12c0.01-0.01,0.02-0.02,0.03-0.02C227.15,635.76,227.18,635.64,227.21,635.53
		c0.44,0.2,0.07,0.25-0.07,0.37c0,0.04-0.02,0.09-0.02,0.14v0.02l1.55-0.53C228.34,635.39,227.93,635.42,227.21,635.53"/>
	<path class="st1" d="M219.47,630.7c0.05,0.09,0.04,0.16,0.05,0.23C219.62,630.81,219.67,630.73,219.47,630.7"/>
	<path class="st1" d="M220.11,631.28c-0.11,0.13-0.21,0.52-0.58,0.42c-0.31-0.3,0.01-0.46-0.01-0.78c-0.22,0.25-0.77,0.69-0.08,1.15
		l0.11-0.13c0.62,0.33,1.42,1.53,1.31,1.67C220.68,632.75,220.52,632.13,220.11,631.28"/>
	<path class="st1" d="M223.7,633.16l1.29-0.47l-0.66-0.83l0.03,0.5C223.64,632.16,223.8,632.78,223.7,633.16"/>
	<polygon class="st1" points="230.71,636.16 230.54,637.17 231.28,635.73 	"/>
	<polygon class="st1" points="232.38,636.04 232.31,636.92 232.76,636.38 	"/>
	<path class="st2" d="M326.49,625.08l0.37-0.25C326.69,624.9,326.58,624.98,326.49,625.08"/>
	<path class="st2" d="M323.76,625.02l-0.07,0.44C323.82,625.21,323.87,625.04,323.76,625.02"/>
	<path class="st2" d="M273.34,635.93c0.55,0.83,1.16,2.11,1.1,1.12l-0.17-0.97C273.88,636.24,273.59,636.14,273.34,635.93"/>
	<path class="st2" d="M301.39,630.15c-0.05-0.1-0.1-0.19-0.16-0.3c-0.14,0.33-0.26,0.64-0.37,0.93
		C301.02,630.59,301.2,630.38,301.39,630.15"/>
	<path class="st2" d="M301.78,626.15l0.73,0.62C302.34,626.55,302.11,626.34,301.78,626.15"/>
	<path class="st2" d="M341.4,624.05l0.44-0.98C341.16,623.07,341.46,623.57,341.4,624.05"/>
	<path class="st1" d="M249.46,635.68c0.48,0.37,0.85,0.53,1.19,0.58C250.07,635.7,249.61,634.87,249.46,635.68"/>
	<path class="st2" d="M325.42,635.35c0.23-0.17,0.33-0.37,0.32-0.58C325.5,634.93,325.37,635.11,325.42,635.35"/>
	<path class="st1" d="M252.01,636.25c-0.09-0.09-0.17-0.14-0.25-0.23c-0.35,0.17-0.7,0.3-1.12,0.24
		C251.06,636.68,251.55,636.93,252.01,636.25"/>
	<path class="st2" d="M395.48,624.85c0.04,0.04,0.08,0.07,0.12,0.11C395.62,624.83,395.56,624.83,395.48,624.85"/>
	<path class="st2" d="M411.24,634.62c-0.16,0.06-0.41,0.06-0.65,0.07C410.7,634.76,410.9,634.75,411.24,634.62"/>
	<path class="st1" d="M239.09,636.45C238.74,636.51,239.03,636.56,239.09,636.45"/>
	<path class="st1" d="M237.37,632.63c0.07-0.1,0.13-0.25,0.14-0.47C237.48,632.39,237.43,632.54,237.37,632.63"/>
	<path class="st1" d="M255.53,630.23c0.01,0,0.02,0.01,0.03,0.01C255.46,630.05,255.48,630.08,255.53,630.23"/>
	<path class="st1" d="M238.55,636.02c0.14,0.11,0.29,0.22,0.45,0.28C238.94,636.23,238.8,636.13,238.55,636.02"/>
	<path class="st1" d="M238.63,636.47c-0.12-0.04-0.22-0.07-0.31-0.1C238.28,636.54,238.31,636.65,238.63,636.47"/>
	<path class="st1" d="M239.58,636.4c-0.2,0.02-0.39-0.03-0.58-0.1c0.07,0.06,0.1,0.11,0.08,0.15
		C239.19,636.44,239.34,636.42,239.58,636.4"/>
	<path class="st2" d="M366.51,627.44c0.02,0.03,0.05,0.05,0.07,0.1C366.94,627.14,366.78,627.2,366.51,627.44"/>
	<path class="st2" d="M282.55,625.88c-0.02,0.01-0.03,0.04-0.04,0.04c0.02,0.02,0.04,0.03,0.05,0.03L282.55,625.88z"/>
	<path class="st2" d="M283.82,625.16c-0.54,1.2-0.85,1.06-1.26,0.8l0.42,2.79L283.82,625.16z"/>
	<path class="st1" d="M333.03,624.8l-0.9-0.87c1.08-1.43,1.86-0.94,1.02-2.16c-0.13,3.03-3.47,0.3-3.6,3.34l-0.58-0.64
		c0.17,0.03,0.19-0.14,0.36-0.11c-1.14-1.45-0.85,2.19-2.32,1.76c-0.51-0.24-0.87-0.67-0.52-1.03l-1.14,0.75
		c-0.34-0.06-0.25-0.58,0.08-0.53l-1.75,0.24l0.01-0.09c-0.25,0.47-0.81,1.2-1.09,1.52c-0.44-0.44,0.23-0.32,0.11-0.7l-0.96,0.73
		c-0.4-0.78,0.41-1.54,1.07-1.43c-0.91-3.02-0.8,0.76-2.75-1.01l0.92-0.38c-0.58-1.72-1.3-1.09-2.33-2.16
		c0.25,0.56,2.07,2.7,1.02,3.45c-0.29-0.23-0.68-0.34-1.25,0.27c0-1.07-0.56-0.81-1.25-0.75l0.04-1.42
		c-0.74,0.41-0.68,1.13-1.13,1.78c-0.83-0.15-1-1.25-1.2-2.18c-1.34-0.23,0.92,1.77-0.66,2.04c-1.11-0.55-1.88,0.04-3.21,0.89
		c-0.78-0.49,0.14-0.87-0.14-1.28l-0.68,1.14c-0.17-0.03-0.12-0.38-0.09-0.56c-0.58,0.44-0.05,1.43-0.96,1.82
		c-0.25,1.57-1.87-2.3-3-0.51c-0.28-0.41,0.14-0.87,0.05-1.43c-1.55,1.18-1.33,0.85-2.6,2.43l-1.09-0.94
		c0.8,1.07-0.22,2.34-1.11,3.38c0.28,0.52,0.52,0.97,0.68,1.19l-1.42,0.77c-0.17-0.24-0.03-0.72,0.2-1.33
		c-0.1,0.12-0.19,0.24-0.26,0.35c-0.51-0.53-0.24-1.35,0.12-2.14c0.17,0.28,0.34,0.58,0.51,0.87c0.34-0.86,0.68-1.82,0.6-2.66
		c-0.09,0.17-0.27,0.3-0.47,0.38c0.09-0.24,0.15-0.44,0.11-0.58c-0.04-0.16-0.19,0.17-0.43,0.53l-0.32-1.59l-0.08,0.64l-1.86-1
		c-1.32,1.6-2.48,3.97-4.59,4.62c0.52-1.17,0.11-1.91,0.13-3.29c0.58,1.46,1.64-0.62,2.73-0.31c-0.57-0.16-0.44-0.82-0.3-1.05
		l-1.95,1.33c0.05-1.12-0.41-0.85-0.92-1.32c0.39,2.24-1.46,1.49-2.25,2.18c-0.04-0.75,0.15-1.52,1.12-1.33
		c-1.07-1.68-1.39,2.62-2.43,1.19c0.24-0.02,0.37,0.1,0.46-0.29c-0.55,0.67-1.9,0.14-1.58-0.51l0.23-0.02
		c-1.56-0.26-4.78-0.01-5.01,1.88c-0.02-0.24,0.2-2.28,0.3-2.68l-2.81,6.4c0.24-1.64-0.7-5.52,0.6-6.44
		c-0.37-0.23-0.83-0.51-1.62,0.08c0.25,0.23,0.63,2.35,0.29,2.5c-0.96-1.81-0.67-0.97-1.85-2.52c0.38,0.35-0.04,2.9-0.64,2.82
		c0.1-0.38-0.05-2.52,0.17-2.79l-1.5,2.51c0.37-0.45,0.07-2.13-0.27-2.83c0.15,0.49-1.3-0.04-1.7,0.2l0.64,0.58
		c-1.7-0.38-1.68,3.52-3.36,3.39c0.2-0.51,0.5-3.19-0.36-3.5c-0.38,1.28-1.73,6.18-3.23,7.17l-0.28-0.73l-1.15,0.84
		c0.71-1.94,2.71-6.01,3.8-7.59c-0.64-0.58-0.18-0.86-1.13-0.79c-0.34-0.7,0.52-1.05,0.79-1.09l-2.21-0.44
		c0.1,1.5-1.69,1.5-1.61,2.75l2.41-1.55c0.1,1.49-1.39,4.25-2.95,3.99c-0.4-0.6,0.3-2.68,0.26-3.17c-0.2,0.51-1.49,0.99-1.63,0.62
		l0.66-0.8c-0.88-0.57-1.42,1.99-2.48,0.56c-0.37-0.1-1.08-1.94-1.14-1.05c0.58,1.72,0.7,7.01,0.31,8.3
		c-0.13-0.11-1.9-1.64-2.32-2.48c-0.59-1.34,0.9-3.2,0.39-4.36c-0.03,0.42-0.35,0.92-0.49,1.08c-0.38-0.35,0.16-1.27-0.67-1.08
		c-0.14,1.53-1.68-0.13-0.39,1.28c-0.81,0.44-0.86-0.3-1.81-0.24c0.31,0.98-0.85,3.35-1.66,3.77c0.05-0.38-0.14-0.88-0.22-1.12
		c-1.66-0.13-2.55-0.83-4.1-0.84c-0.14-0.37-0.89-0.82-0.57-1.47c-0.23,0.27-0.43,0.78-0.91,0.82c-0.92-1.31,1.06-0.2,0.36-1.78
		c-0.06,0.88-1.23,1.21-1.91,1.77c0.21,1.37,1.57,0.26,2.25-0.29c0,1.88-1.18,3.85-2.8,4.72c-1.29,0.47-0.56-1.22-0.78-0.95
		c-2.41-0.33-2.06,3.29-4.07,1.93c-0.79-1.19-0.03-2.38-0.21-3.25c1.05-0.45,1.61,0.76,2.32,0.71l-0.88-0.57
		c0.34-0.4,1.03-0.71,1.42-0.35c-0.67-1.08-4.08-0.21-5.94-1.21c-0.33,0.4-0.91,0.83-0.63,1.3l0.59-0.17
		c0.54,0.98-1.11,1.34-0.36,1.8c-0.79,0.68-1.68,1.74-2.79,1.2l-0.21-1.37c0.02,0.39,0.73,0.81,1.04,0.39
		c-0.46,0.61-1.71-1.85-2.21-0.06l0.78,0.95c-0.79,0.69-1.77,2.14-2.76,1.71c0.45,1.35,0.23-0.16,0.93,1.43
		c-0.61-1.97,2.52,0.08,1.55-1.99c0.71,1.84,1.24,0.78,2.18,2.34c-0.03-0.45-0.33-0.86,0.5-0.64c0.03-0.13,0.12-0.3,0.18-0.39
		c0.03,0.01,0.04,0.02,0.05,0.03c-0.02-0.02-0.03-0.03-0.04-0.04c0.03-0.07,0.04-0.09-0.02-0.03c-0.2-0.19-0.36-0.43-0.42-0.69
		c0.41-1.03,1.73-0.99,2.17-1.53c0.49,0.22-0.21,0.51,0.06,0.99l0.66-0.79c0.07,1,1.31,1.67,0.15,2.25l1.04,0.04
		c0.61,0.57,1.46,0.79,1.97,0.37c0.49,0.22,1.24-1.12,0.82-0.32l1.63-0.63l0.02,0.25c1.61,0.12,3.32-1.66,5.16,0.16
		c0.54-0.26,1.1-0.58,2.01-0.29l0.17,0.87c0.7-0.31,2.09,0.86,2.39-0.04c0.75,2.34,3.38,0.51,4.61,0.92l0.05-1.12
		c0.84,0.06,1.65-0.26,2.7-0.71l-0.07-1c0.9-0.82,2.32,0.71,3.75,0.61c-0.1,0.38-0.46,0.29-0.71,0.05c1.7,2.26,3.6-1.64,5.14,0.01
		c0.38-0.37,0.66-0.24,0.93,0.01c-0.03,0-0.07,0.02-0.1,0.05c0.04,0.01,0.1,0.01,0.16,0.01c0.17,0.17,0.34,0.37,0.54,0.53
		c-0.17-0.24-0.32-0.44-0.45-0.53c0.3-0.03,0.75-0.15,1.19-0.4l0.18,1.08c0.03-0.02,0.07-0.01,0.1-0.03
		c0.43,0.4,0.35-0.51,0.11-1.32c0.23-0.17,0.43-0.39,0.58-0.65c0.36,1.73,1.16-0.58,1.65,1.26c0.3-0.91,2.21-0.68,2.45-2.58
		c0.02,0.24,0.15,0.37-0.09,0.38c0.49,0.22,0.98,0.43,1.43-0.1l0.21,1.37l1.08-1.84c0.65,0.83,0.92,1.32,0.27,2.37
		c1.56-1.62,1.27-0.61,2.6-2.21l-0.06,0.89c0.48-0.04,1.24-1.22,1.53-0.49c1.06,1.67,5.27,0.23,8.01,1.79
		c-0.53-2.6,1.27,1.17,1.38-0.85c0.16,0.61,0.54,0.96,0.1,1.49c1.39-0.6,2.1,0.98,3.06-0.72c0.17,0.62-0.3,0.91-0.16,1.27
		c0.11-0.14,0.44-0.54,0.59-0.17c0.14,0.37-0.2,0.52-0.43,0.78c1.43-0.1,1.57-2,1.67-3.77c0.72,0.84,1.08,0.72,1.6-0.44
		c0.25,0.58,0.67,1.19-0.21,1.4c0.5,0.09,3.05,0.85,3.09-0.58c0.17,0.36,0.71,0.1,0.83-0.06c1.12,0.09,1.22,0.22,2.31,0.08
		l-0.3-0.24c0.43-1.72,0.91-0.37,1.8-0.58l-0.03,0.17c2.03,1.24,0.87-0.6,2.88,0.82l-0.1-1.07c0.18-2.3,1.77,1.36,2.93,0.48
		l-0.42-0.61c0.63-0.79,1.77,3.13,2.41,3.42c0.14,0.2-0.22,0.32-0.41,0.47c1.66,1.36,0.21-1.4,1.46-1.73
		c0.23,0.76-0.29,1.93,0.54,2.06c0.42,0.62,2.43-2.45,3.57-1c-0.25-0.58-0.5-1.16,0.08-1.6c0.88-0.2,2.39,2.21,3.19,0.37
		c0.11,0.17,0.16,0.31,0.16,0.46c0.68-0.48,2.2-0.79,2.61-1.79c0.63,3.7,4.21-1.8,4.19,1.61l2.08-0.18l-0.05,0.35
		c1.33,0.23,1.8-0.59,2.27-1.41c0.31,0.24,0.08,0.55,0.06,0.73c1.95,0.69,2.14,0.54,3.77-1.15l0.17,1.1
		c0.44-0.65,2.82,1.73,4.72,0.44c-0.01,0.13-0.05,0.34-0.2,0.5c2.14-1.3,5.13,3.07,5.92-0.96l1.42-0.99
		c-1.83-0.31,0.27-1.75-0.48-2.41c0.71-0.24,1.86,1.21,0.98,1.42l-0.14-0.2c-0.33,2.1,2.27,0.74,2.23,2.17
		c3.6-0.1,7.12,1.06,10.5,1.15l-0.39-1.63l1.18,0.09c0.31,0.38,0.42,1.28-0.43,1.21c0.44,0.92,1.41-0.77,1.44-1.12
		c1.64,0.65-0.65,1.9-0.14,1.94l0.69-0.11l-0.15-0.19c0.55-0.67,0.6-1.38,1.61-1.3c0.64,0.32,0.33,1.01,0.58,1.07
		c0,0.11,0.08,0.17,0.39,0.04l1.48,0.14l-0.59-1.28c0.66-0.65,1.39,0.06,0.71-1.39c1,2.25,5.53,0.8,6.14,1.51
		c0.92-0.94,1.84-0.92,2.96-0.81c-0.28-0.27-0.45-1.72,0.52-1.54c-0.36,2.99,1.78,1.3,2.56,3.45c-0.7-1.43,2.76-0.36,1.66-2.38
		c0.81,0.24,0.05,1.12,0.67,1.82c1.93-1.16,4.25,0.75,6.64,0.36c0.04-0.39-0.37-0.98,0.14-1.57l1.26,1.96
		c0.47-0.19,0.44-2.27,1.29-0.91c-0.12-0.33-0.3-0.83,0.01-0.95c4.67,1.91,9.55-1.57,14.29,2.02c-0.64-0.76-0.21-0.83,0.28-0.86
		c-0.32-0.18,0.01-0.97-0.06-1.5l1.99,1.47c0.36-1.47,2.13-0.1,2.33-1.51l-0.62,0.25c0.83-1.66-1.17-3.7-1.05-5.84
		c-0.93,1.89-2.47-2.81-4.01-0.09c-0.34-0.44,0.28-0.7,0.11-1.19c-0.4,0.92-0.86,1.11-1.73,0.69l0.1-0.22
		c-2.45,0.22-3.5-0.69-6.25-1.29l0.2,1.05c-0.59-0.13-0.72-0.47-1-0.73c-0.68,1.6,1.67,0.09,1.05,1.86
		c-0.78-2.15-4.17-0.03-4.7-2.48c-0.91-0.01,0.26,1.23-0.65,1.21l-0.24-0.66l-0.23,0.85c-0.6-0.14-0.9-0.97-0.92-1.52
		c0.14,0.06,0.41-0.16,0.57-0.21c-0.77-0.78-2.18,0.26-2.45,0.01l0.87,0.41c-2.48,0.62-5.51-0.25-7.91,1.1l0.18,0.5
		c-1.83,0.92-1.47-0.55-3.48-0.12l0.07-0.12c-0.41,0.51-0.94,0.75-1.49,0.7c0.51-0.58-0.95-1.13-0.29-1.79
		c-1.99,0.99-0.98,0.78-2.29,2.63l-0.3-0.82c-0.44,0.74-0.48,1.13-1.49,1.35c0.82-0.71-0.64-1.26,0.28-2.2
		c-2.11-1.81-3.13,1.82-4.1-0.82c-0.97,2.28,1.82,1.27,1.28,1.76c0.45,0.74-0.8,1.71-1.46,1.48c-0.68-0.05-1.15-2.93-2.84-2.89
		c0.17,0.01,0.17-0.17,0.35-0.16c-0.64-0.58-1.24,0.79-2.02-0.16c-0.44,1.39-1.01-0.08-1.13,1.69l1.55-0.41
		c-0.88,0.45-1.71,2.53-3.16,1.53c0.11-0.36,0.54-0.83,0.84-1.09c-0.42-0.51-0.81,0.35-1.26-0.19c0.13-1.76,1.89-0.38,2.83-1.73
		c-0.45-0.75-1.79,1.27-1.31-0.64c-0.68,2.43-1.67-0.31-2.81,1.55l0.07-1.06c-0.18,0.17-0.56,0.67-0.89,0.64l0.6-1.38
		c-0.92,1.18-1.79-1.02-2.68-0.38c1.87-0.03,0.42,1.27,1.2,2.05c-2.3,1.42-1.32-2.77-3.9-2.27c0.35-0.15,1.31,0.65,0.76,1.13
		c-0.48-0.22-1.13-0.63-1.43-1.18c-1.7,0.22,0.27,1.08-0.47,1.73c-0.58-1.29-0.83,0.52-1.58,0.94v-1.08
		c-1.94-0.69-0.51,2.24-2.27,1.41l0.74-1.5l-0.92,0.39l0.19-1.23c-0.99,0.91-1.3,0.67-2.27,0.33c0.22,0.76-0.13,1.95-0.99,1.99
		c-0.58-0.64,0.33-1.03-0.89-0.87c0.27-0.67,0.58-1.52,1.11-0.52c0.05-0.35,0.27-0.67,0.33-1.03c-0.63-0.73-1.58-0.17-2.03-0.16
		c0.17,0.04,0.37,0.1,0.48,0.25l-1.77,1.49c-0.28-0.4-0.06-0.73,0.16-1.04c-0.36,0.1-0.61,0.6-1.13,0.7
		c0.14-0.87,0.1-1.78,0.85-2.19l-1.68,0.97c-0.11-0.37-0.86-1.05-0.64-1.36c-0.93-0.52-2.29,1.69-3.53,1.01
		c-0.07,0.17-0.2,0.33-0.46,0.46c-1.16-0.2-2.19-1.27-3.57-0.08l-0.78-1.56c-1.08,0.35,1.06,1.97-0.74,2.56
		c-1.27,0.5-0.48-1.34-0.92-1.78c-0.63,0.79-1.73,2.41-2.9,1.12C332.36,624.69,332.67,624.91,333.03,624.8 M319.7,625.49
		c0.26-0.22,0.78-0.92,0.96-0.29C320.36,626.44,320.14,625.85,319.7,625.49 M299.43,628.09c0.19-0.36,0.48-0.18,0.82,0.23
		C300.01,628.4,299.73,628.36,299.43,628.09 M242.96,635.58c0.01-0.02,0.02-0.03,0.03-0.05
		C243.57,635.95,243.37,635.78,242.96,635.58 M241.77,635.11c-0.12,0.15-0.11,0.3-0.07,0.45c0.08-0.27,0.36-0.3,0.66-0.22
		C242.29,635.06,242.13,634.87,241.77,635.11 M370.29,634.68l-0.24-0.28C370.57,634.1,370.43,634.38,370.29,634.68"/>
	<path class="st2" d="M301.72,626.61c0.08,0.18,0.1,0.37,0.11,0.58C301.94,627.01,301.94,626.8,301.72,626.61"/>
	<path class="st2" d="M341.32,624.23c0.02,0.01,0.03,0,0.04,0.01c0.02-0.06,0.03-0.13,0.03-0.19L341.32,624.23z"/>
	<path class="st2" d="M260.31,625.99c0.25,0.16,0.39,0.35,0.47,0.56C260.79,626.27,260.68,626.05,260.31,625.99"/>
	<path class="st1" d="M235.43,636.94l0.77-0.28c-0.37,0.05-0.51-0.18-0.69-0.36C235.52,636.56,235.67,636.92,235.43,636.94"/>
	<path class="st1" d="M228.77,630.28c-0.11,0.13-0.24,0.01-0.35,0.15l0.03,0.5C228.93,630.89,229.27,630.49,228.77,630.28"/>
	<path class="st1" d="M234.72,633.37c-0.06-0.91-0.54-0.6-1.08-0.44c0.03,0,0.06-0.01,0.1,0
		C233.58,634.2,234.15,633.78,234.72,633.37"/>
	<path class="st1" d="M233.52,632.97c-0.17,0.04-0.34,0.06-0.5,0.02C232.96,633.5,233.22,633.1,233.52,632.97"/>
	<path class="st1" d="M240.25,635.71c-0.25-0.24-0.16,1.16-0.3,0.79C239.66,637.66,241.64,635.1,240.25,635.71"/>
	<polygon class="st1" points="234.28,630.38 234.48,631.5 234.78,630.6 	"/>
	<path class="st1" d="M238.52,631.2l-0.86-0.31c0.01,0.19-0.1,0.3-0.23,0.38C237.97,631.31,238.54,631.53,238.52,631.2"/>
	<path class="st1" d="M237.43,631.28c-0.27-0.03-0.54,0-0.69,0.18C236.89,631.45,237.22,631.42,237.43,631.28"/>
	<polygon class="st1" points="235.46,630.05 235.71,630.27 236.31,630.36 	"/>
	<path class="st1" d="M247.75,631.42l0.94-0.32c0.1-0.38-0.16-0.61-0.51-0.46C247.95,630.9,247.6,631.05,247.75,631.42"/>
	<path class="st1" d="M244.92,628.36c0.25,0.24,0.27,0.48,0.41,0.85l0.03-1.39L244.92,628.36z"/>
	<path class="st1" d="M247.65,628.03c0.09-0.38,1.36-1.11,0.17-1.02C247.72,627.4,246.78,627.72,247.65,628.03"/>
	<polygon class="st2" points="261.75,629.79 261.52,629.8 261.55,632.08 	"/>
	<path class="st2" d="M274.19,624.35c-1.11-0.54-0.27,1.4-1.27,0.72c-0.26,0.54,0.82,0.56,0.55,1.02
		C274.14,625.52,274.5,625.85,274.19,624.35"/>
	<path class="st2" d="M273.48,626.09c-0.11,0.09-0.22,0.19-0.34,0.35C273.33,626.29,273.42,626.19,273.48,626.09"/>
	<polygon class="st2" points="413.85,635.84 414.56,636.31 414.1,635.55 	"/>
	<path class="st2" d="M415.22,634.15l0.17,1.46l0.42-1.32C415.65,634.35,415.34,634.48,415.22,634.15"/>
	<path class="st2" d="M317.72,622.58l-0.06,0.35c0.11,0.37,0.27,0.4,0.61,0.46L317.72,622.58z"/>
	<polygon class="st2" points="327.39,623.66 327.23,623.63 327.54,624.94 	"/>
	<path class="st2" d="M335.52,621.98c-0.33-0.05-0.72,0.24-1.05,0.18C335.18,621.93,335.6,623.62,335.52,621.98"/>
	<path class="st1" d="M1654.26,624.94c0.34,0.09,0.22-0.85,0.27-1.02C1653.96,624.13,1654.28,625.19,1654.26,624.94"/>
	<polygon class="st1" points="1648.59,627.07 1648.69,626.68 1647.86,627.62 	"/>
	<path class="st1" d="M1643.29,627.05c0.5,1.6,1.92-0.25,2.87,0.31l0.15,0.36l0.43-1.28
		C1645.59,626.64,1644.1,627.49,1643.29,627.05"/>
	<path class="st1" d="M1640.46,623.61c0.18,0.62-0.61,0.53,0.66,0.19c-0.07-0.07-0.09-0.1-0.12-0.16
		C1640.89,623.65,1640.73,623.65,1640.46,623.61"/>
	<path class="st1" d="M1641,623.64C1641.56,623.6,1640.64,623.12,1641,623.64"/>
	<path class="st1" d="M1638.43,624l0.74-0.56c-0.16-0.37-0.81-0.45-0.57-0.71C1637.84,623.03,1637.99,623.4,1638.43,624"/>
	<path class="st1" d="M1637.73,625.16l0.38-0.24C1638.04,624.77,1637.94,624.71,1637.73,625.16"/>
	<path class="st1" d="M1638.92,624.43l-0.81,0.49c0.11,0.26,0.12,0.78,0.37-0.18C1638.41,625.22,1638.57,624.76,1638.92,624.43"/>
	<path class="st1" d="M1639.38,624.67c0.41,0.35,0.95,0.57,0.2,1.12C1640.99,625.57,1640.78,624.45,1639.38,624.67"/>
	<path class="st1" d="M1643.02,628.7l0.55,0.47l0.47-0.54C1643.81,628.89,1642.98,628.2,1643.02,628.7"/>
	<path class="st1" d="M1633.84,623.17c-0.04,0.34,0.25,0.91,0.31,1.33l0.54-0.38C1634.41,623.88,1633.88,623.68,1633.84,623.17"/>
	<path class="st1" d="M1634.15,624.5l-0.82,0.58C1634.06,625.16,1634.19,624.88,1634.15,624.5"/>
	<polygon class="st1" points="1637.6,626.93 1638.93,625.71 1637.34,626.94 	"/>
	<polygon class="st1" points="1630.74,623.13 1631.2,622.34 1630.38,623.53 	"/>
	<path class="st1" d="M1628.68,623.27c0.34-0.64-0.46-1.1-0.1-1.5c-0.56,0.11-1.04,0.67-1.47,1.18
		C1627.56,622.66,1628.05,622.73,1628.68,623.27"/>
	<path class="st1" d="M1626.38,623.68c0.23-0.16,0.46-0.44,0.72-0.73C1626.86,623.09,1626.62,623.31,1626.38,623.68"/>
	<path class="st1" d="M1631.95,624.92c-0.06-0.21-0.18-0.74-0.64-0.97l0.31,0.95C1631.72,624.91,1631.84,624.91,1631.95,624.92"/>
	<path class="st1" d="M1631.64,624.94l-0.01-0.03c-0.35-0.02-0.59-0.04-0.69-0.05C1631.02,624.86,1631.24,624.89,1631.64,624.94"/>
	<path class="st1" d="M1632.03,624.92c-0.03,0-0.05,0-0.08,0C1631.98,625.02,1632,625.04,1632.03,624.92"/>
	<path class="st1" d="M1635.47,626.06c-0.48,0.53-1.47,1.11-0.51,1.92C1635.3,627.33,1634.75,626.87,1635.47,626.06"/>
	<path class="st1" d="M1632.42,626.12l0.86,0.22c-0.02-0.24-0.17-0.62,0.07-0.88L1632.42,626.12z"/>
	<polygon class="st1" points="1632,626.42 1632.42,626.12 1632.11,626.04 	"/>
	<path class="st1" d="M1627.86,624.56c-0.37,0.42-0.78,0.45-1.24,0.52c0.5,0.18,1,0.28,1.49,0.28
		C1628.18,625.07,1628.39,624.54,1627.86,624.56"/>
	<path class="st1" d="M1629.7,624.83c-0.03,0.02-0.06,0.03-0.08,0.05C1629.67,624.97,1629.71,624.99,1629.7,624.83"/>
	<path class="st1" d="M1622.08,625.08c0.02,0.05,0.04,0.11,0.07,0.17c0.01-0.06,0.01-0.11,0.02-0.17H1622.08z"/>
	<path class="st1" d="M1628.19,625.55c0.37,0.18,0.59-0.05,0.8-0.35c-0.27,0.1-0.57,0.16-0.89,0.17
		C1628.08,625.51,1628.07,625.59,1628.19,625.55"/>
	<path class="st1" d="M1625.12,624.12c0.19,0.2,0.41,0.37,0.65,0.52C1625.57,624.35,1625.18,623.87,1625.12,624.12"/>
	<path class="st1" d="M1629.49,624.62c0.02-0.01,0.03-0.03,0.06-0.03C1629.42,624.37,1629.44,624.48,1629.49,624.62"/>
	<path class="st1" d="M1629.49,624.62c-0.19,0.14-0.34,0.37-0.49,0.58c0.22-0.07,0.43-0.17,0.61-0.31
		C1629.57,624.82,1629.52,624.71,1629.49,624.62"/>
	<path class="st1" d="M1620.71,631.2c0.07-0.88,1.04-1.7,1.88-0.76c0.83-0.65,0.28-3.56-0.44-5.19c-0.03,0.38-0.03,0.74-0.88,1.27
		c0.3,0.48,1.89,1.12,1.17,1.92c-1.13,0.46-0.92-0.3-1.47-0.78c0.47,1.11-1.44,1.6-1.19,3.22l0.99-0.57
		C1620.79,630.56,1620.43,630.97,1620.71,631.2"/>
	<path class="st1" d="M1623.78,625.34l0.35-0.1c-0.41-0.16-0.69-0.51-1.22-1.2c-0.58,0.43-0.71,0.76-0.75,1.05l1.73,0.12
		L1623.78,625.34z"/>
	<path class="st1" d="M1625.71,625.23c-0.27,0.96-1.12,1.37-0.6,2.41c1.03-0.07,0.72-0.81,1.34-1.22c-1.67,0.24,0.48-0.54-0.73-1.09
		c0.33-0.16,0.63-0.21,0.9-0.24c-0.3-0.12-0.59-0.27-0.86-0.44c0.02,0.02,0.03,0.03,0.04,0.06v-0.01c0,0.01,0,0.02,0,0.02
		c0.07,0.12,0.09,0.2,0.01,0.12c0,0.02-0.02,0.02-0.03,0.02C1625.77,624.99,1625.74,625.11,1625.71,625.23
		c-0.48-0.21-0.07-0.25,0.08-0.37c0-0.04,0.02-0.09,0.02-0.14v-0.01l-1.67,0.52C1624.49,625.37,1624.92,625.33,1625.71,625.23"/>
	<path class="st1" d="M1634.07,630.05c-0.06-0.09-0.05-0.15-0.06-0.22C1633.91,629.94,1633.87,630.03,1634.07,630.05"/>
	<path class="st1" d="M1633.38,629.47c0.12-0.14,0.22-0.52,0.61-0.42c0.34,0.29,0,0.45,0.02,0.78c0.23-0.26,0.83-0.7,0.08-1.16
		l-0.12,0.13c-0.67-0.33-1.53-1.53-1.42-1.66C1632.76,628,1632.93,628.62,1633.38,629.47"/>
	<path class="st1" d="M1629.5,627.59l-1.39,0.47l0.71,0.84l-0.04-0.5C1629.57,628.59,1629.4,627.97,1629.5,627.59"/>
	<polygon class="st1" points="1621.93,624.6 1622.11,623.58 1621.3,625.02 	"/>
	<polygon class="st1" points="1620.12,624.72 1620.19,623.83 1619.71,624.36 	"/>
	<path class="st1" d="M1518.41,635.68l-0.41,0.24C1518.2,635.85,1518.32,635.77,1518.41,635.68"/>
	<path class="st1" d="M1521.36,635.74l0.07-0.44C1521.3,635.55,1521.24,635.72,1521.36,635.74"/>
	<path class="st1" d="M1575.86,624.82c-0.59-0.83-1.26-2.11-1.19-1.11l0.18,0.97C1575.27,624.5,1575.59,624.61,1575.86,624.82"/>
	<path class="st1" d="M1545.54,630.6c0.06,0.1,0.12,0.2,0.17,0.3c0.14-0.33,0.28-0.64,0.4-0.93
		C1545.94,630.16,1545.74,630.38,1545.54,630.6"/>
	<path class="st1" d="M1545.12,634.61l-0.78-0.63C1544.52,634.2,1544.76,634.41,1545.12,634.61"/>
	<path class="st1" d="M1502.3,636.71l-0.47,0.98C1502.57,637.68,1502.24,637.19,1502.3,636.71"/>
	<path class="st1" d="M1601.66,625.08c-0.51-0.38-0.92-0.54-1.28-0.58C1601,625.05,1601.5,625.88,1601.66,625.08"/>
	<path class="st1" d="M1519.57,625.4c-0.25,0.17-0.36,0.37-0.35,0.59C1519.48,625.83,1519.63,625.64,1519.57,625.4"/>
	<path class="st1" d="M1598.91,624.49c0.09,0.1,0.18,0.15,0.27,0.23c0.37-0.16,0.75-0.3,1.21-0.23
		C1599.93,624.08,1599.4,623.82,1598.91,624.49"/>
	<path class="st1" d="M1443.86,635.9c-0.04-0.03-0.09-0.06-0.14-0.11C1443.71,635.91,1443.77,635.92,1443.86,635.9"/>
	<path class="st1" d="M1426.84,626.13c0.17-0.06,0.44-0.06,0.69-0.08C1427.41,625.99,1427.2,626,1426.84,626.13"/>
	<path class="st1" d="M1612.87,624.29C1613.25,624.23,1612.93,624.19,1612.87,624.29"/>
	<path class="st1" d="M1614.73,628.12c-0.09,0.11-0.14,0.25-0.15,0.48C1614.61,628.36,1614.66,628.22,1614.73,628.12"/>
	<path class="st1" d="M1595.1,630.52c-0.01,0-0.02,0-0.03,0C1595.18,630.71,1595.16,630.67,1595.1,630.52"/>
	<path class="st1" d="M1613.44,624.74c-0.14-0.12-0.31-0.22-0.49-0.29C1613.04,624.52,1613.18,624.62,1613.44,624.74"/>
	<path class="st1" d="M1613.37,624.28c0.14,0.04,0.24,0.07,0.34,0.1C1613.75,624.21,1613.71,624.11,1613.37,624.28"/>
	<path class="st1" d="M1612.34,624.35c0.22-0.01,0.42,0.03,0.62,0.1c-0.07-0.07-0.11-0.12-0.08-0.16
		C1612.76,624.31,1612.6,624.33,1612.34,624.35"/>
	<path class="st1" d="M1475.17,633.31c-0.02-0.03-0.06-0.05-0.08-0.09C1474.71,633.62,1474.87,633.56,1475.17,633.31"/>
	<path class="st1" d="M1565.91,634.88c0.02-0.01,0.03-0.03,0.04-0.05c-0.02-0.01-0.04-0.03-0.06-0.04L1565.91,634.88z"/>
	<path class="st1" d="M1564.53,635.59c0.58-1.2,0.92-1.05,1.36-0.8l-0.45-2.79L1564.53,635.59z"/>
	<path class="st1" d="M1511.35,635.95l0.96,0.88c-1.16,1.43-2.01,0.93-1.1,2.16c0.14-3.04,3.75-0.31,3.88-3.35l0.64,0.65
		c-0.18-0.03-0.21,0.15-0.39,0.11c1.24,1.46,0.92-2.19,2.51-1.76c0.55,0.24,0.94,0.67,0.56,1.04l1.23-0.75
		c0.36,0.05,0.27,0.58-0.08,0.52l1.89-0.24l-0.02,0.09c0.27-0.48,0.88-1.21,1.18-1.53c0.48,0.44-0.24,0.32-0.11,0.7l1.04-0.73
		c0.43,0.78-0.44,1.55-1.16,1.43c0.98,3.03,0.87-0.76,2.97,1.01l-0.98,0.38c0.63,1.72,1.4,1.1,2.51,2.16
		c-0.26-0.56-2.23-2.69-1.1-3.45c0.32,0.23,0.74,0.34,1.36-0.27c0,1.08,0.6,0.82,1.35,0.75l-0.05,1.43
		c0.81-0.41,0.75-1.14,1.22-1.78c0.9,0.14,1.09,1.25,1.3,2.17c1.44,0.23-0.99-1.77,0.71-2.04c1.19,0.55,2.04-0.03,3.48-0.89
		c0.84,0.49-0.15,0.87,0.15,1.28l0.74-1.14c0.18,0.03,0.12,0.38,0.1,0.56c0.62-0.44,0.05-1.43,1.04-1.82
		c0.27-1.57,2.02,2.3,3.24,0.52c0.3,0.4-0.15,0.87-0.06,1.42c1.67-1.17,1.43-0.85,2.81-2.42l1.17,0.93
		c-0.86-1.07,0.24-2.34,1.2-3.38c-0.31-0.51-0.57-0.97-0.74-1.19l1.53-0.77c0.18,0.24,0.03,0.72-0.22,1.33
		c0.1-0.12,0.2-0.24,0.28-0.35c0.55,0.53,0.27,1.36-0.13,2.15c-0.19-0.29-0.37-0.58-0.56-0.88c-0.38,0.86-0.73,1.83-0.65,2.67
		c0.1-0.17,0.29-0.31,0.5-0.38c-0.1,0.23-0.16,0.44-0.12,0.58c0.05,0.15,0.21-0.17,0.46-0.53l0.35,1.59l0.09-0.63l2.01,0.99
		c1.43-1.6,2.68-3.96,4.97-4.61c-0.57,1.17-0.12,1.91-0.15,3.29c-0.63-1.46-1.77,0.62-2.95,0.32c0.62,0.16,0.48,0.81,0.32,1.05
		l2.11-1.33c-0.05,1.12,0.44,0.85,0.99,1.32c-0.41-2.24,1.58-1.49,2.43-2.17c0.06,0.75-0.15,1.51-1.2,1.33
		c1.16,1.68,1.5-2.62,2.63-1.19c-0.25,0.02-0.39-0.1-0.5,0.28c0.6-0.67,2.06-0.14,1.71,0.51l-0.25,0.02
		c1.7,0.26,5.17,0.02,5.42-1.88c0.02,0.24-0.22,2.29-0.32,2.68l3.03-6.39c-0.27,1.63,0.75,5.51-0.65,6.43
		c0.41,0.24,0.9,0.51,1.76-0.07c-0.27-0.24-0.68-2.36-0.31-2.5c1.04,1.8,0.72,0.97,1.99,2.51c-0.41-0.35,0.05-2.9,0.7-2.82
		c-0.1,0.38,0.05,2.52-0.18,2.79l1.62-2.51c-0.41,0.45-0.07,2.13,0.3,2.84c-0.17-0.5,1.41,0.04,1.84-0.2l-0.69-0.59
		c1.84,0.38,1.81-3.52,3.64-3.39c-0.22,0.52-0.55,3.19,0.38,3.5c0.42-1.28,1.88-6.18,3.49-7.17l0.31,0.74l1.23-0.84
		c-0.77,1.93-2.93,6-4.11,7.58c0.68,0.58,0.19,0.86,1.22,0.8c0.37,0.69-0.56,1.05-0.86,1.08l2.39,0.44c-0.11-1.5,1.83-1.5,1.74-2.75
		l-2.6,1.56c-0.11-1.5,1.5-4.26,3.2-4c0.43,0.6-0.33,2.68-0.29,3.17c0.22-0.51,1.61-0.98,1.77-0.62l-0.72,0.8
		c0.94,0.57,1.54-1.99,2.67-0.56c0.4,0.1,1.17,1.94,1.24,1.05c-0.64-1.71-0.76-7.01-0.34-8.29c0.14,0.11,2.06,1.64,2.51,2.48
		c0.64,1.33-0.97,3.2-0.42,4.35c0.02-0.41,0.38-0.91,0.53-1.08c0.41,0.35-0.17,1.27,0.72,1.08c0.15-1.52,1.82,0.13,0.43-1.28
		c0.87-0.44,0.93,0.31,1.95,0.25c-0.33-0.99,0.92-3.35,1.8-3.78c-0.05,0.38,0.15,0.89,0.24,1.12c1.79,0.14,2.75,0.83,4.43,0.85
		c0.15,0.37,0.96,0.81,0.61,1.46c0.24-0.27,0.47-0.78,0.98-0.82c1,1.32-1.15,0.2-0.39,1.79c0.07-0.89,1.34-1.22,2.07-1.78
		c-0.23-1.36-1.7-0.26-2.44,0.3c0-1.88,1.28-3.85,3.03-4.73c1.39-0.46,0.6,1.22,0.84,0.96c2.61,0.32,2.22-3.29,4.39-1.93
		c0.86,1.2,0.04,2.39,0.23,3.25c-1.13,0.45-1.74-0.76-2.5-0.71l0.94,0.58c-0.36,0.39-1.11,0.7-1.53,0.35
		c0.72,1.08,4.41,0.21,6.42,1.2c0.36-0.4,0.97-0.82,0.68-1.3l-0.64,0.17c-0.58-0.97,1.2-1.34,0.39-1.79
		c0.85-0.68,1.81-1.75,3.02-1.2l0.23,1.36c-0.03-0.39-0.78-0.81-1.12-0.39c0.5-0.61,1.84,1.85,2.39,0.06l-0.85-0.95
		c0.86-0.69,1.92-2.14,2.99-1.71c-0.49-1.35-0.24,0.16-1-1.42c0.65,1.96-2.73-0.09-1.67,1.98c-0.78-1.84-1.34-0.78-2.36-2.34
		c0.03,0.44,0.36,0.85-0.54,0.64c-0.04,0.13-0.14,0.3-0.2,0.39c-0.03-0.01-0.04-0.02-0.06-0.03c0.02,0.02,0.03,0.03,0.05,0.05
		c-0.04,0.07-0.04,0.08,0.02,0.02c0.21,0.2,0.38,0.44,0.46,0.69c-0.45,1.04-1.87,1-2.35,1.54c-0.53-0.22,0.22-0.52-0.07-1
		l-0.72,0.79c-0.07-0.99-1.41-1.66-0.16-2.25l-1.12-0.04c-0.67-0.56-1.58-0.78-2.14-0.37c-0.52-0.21-1.34,1.12-0.87,0.33l-1.77,0.62
		l-0.02-0.25c-1.74-0.12-3.58,1.66-5.57-0.15c-0.59,0.25-1.19,0.57-2.17,0.28l-0.19-0.86c-0.75,0.3-2.26-0.87-2.58,0.03
		c-0.81-2.34-3.65-0.51-4.97-0.92l-0.06,1.13c-0.91-0.07-1.78,0.25-2.91,0.71l0.07,1c-0.98,0.82-2.51-0.71-4.05-0.61
		c0.11-0.38,0.5-0.28,0.78-0.05c-1.84-2.26-3.89,1.65-5.56,0c-0.42,0.37-0.71,0.24-1.01-0.01c0.04-0.01,0.07-0.03,0.1-0.05
		c-0.05-0.02-0.11-0.02-0.17-0.02c-0.18-0.17-0.37-0.37-0.58-0.53c0.17,0.24,0.34,0.44,0.48,0.53c-0.32,0.03-0.81,0.15-1.29,0.4
		l-0.2-1.07c-0.04,0.01-0.07,0.01-0.11,0.03c-0.47-0.39-0.37,0.51-0.13,1.32c-0.24,0.18-0.46,0.39-0.64,0.65
		c-0.37-1.73-1.25,0.58-1.77-1.26c-0.32,0.9-2.4,0.67-2.65,2.57c-0.02-0.24-0.16-0.37,0.1-0.37c-0.53-0.23-1.06-0.44-1.54,0.1
		l-0.23-1.36l-1.16,1.83c-0.71-0.83-1-1.32-0.3-2.36c-1.7,1.61-1.37,0.6-2.82,2.21l0.07-0.88c-0.51,0.03-1.34,1.22-1.65,0.49
		c-1.15-1.68-5.7-0.24-8.66-1.8c0.58,2.61-1.37-1.16-1.49,0.85c-0.17-0.62-0.58-0.97-0.1-1.5c-1.51,0.6-2.27-0.98-3.31,0.72
		c-0.17-0.62,0.32-0.9,0.17-1.26c-0.11,0.13-0.48,0.53-0.63,0.17c-0.15-0.37,0.22-0.51,0.46-0.78c-1.54,0.1-1.7,2-1.8,3.78
		c-0.78-0.85-1.18-0.72-1.74,0.44c-0.27-0.58-0.73-1.19,0.23-1.39c-0.54-0.09-3.29-0.85-3.35,0.58c-0.16-0.37-0.75-0.11-0.89,0.05
		c-1.21-0.09-1.32-0.21-2.51-0.08l0.33,0.24c-0.47,1.72-0.98,0.38-1.94,0.59l0.02-0.17c-2.19-1.25-0.95,0.59-3.11-0.83l0.12,1.07
		c-0.2,2.3-1.92-1.36-3.17-0.48l0.45,0.61c-0.69,0.79-1.91-3.13-2.61-3.42c-0.15-0.19,0.24-0.32,0.44-0.47
		c-1.8-1.35-0.23,1.4-1.58,1.73c-0.24-0.75,0.32-1.92-0.58-2.06c-0.45-0.61-2.62,2.46-3.86,1c0.27,0.58,0.54,1.17-0.08,1.6
		c-0.96,0.21-2.58-2.21-3.45-0.37c-0.13-0.16-0.17-0.31-0.17-0.45c-0.73,0.47-2.38,0.78-2.82,1.78c-0.68-3.7-4.55,1.8-4.53-1.61
		l-2.25,0.18l0.06-0.35c-1.44-0.22-1.95,0.59-2.45,1.41c-0.34-0.24-0.1-0.55-0.07-0.72c-2.1-0.69-2.31-0.55-4.07,1.15l-0.18-1.11
		c-0.47,0.64-3.04-1.73-5.1-0.44c0.02-0.12,0.06-0.34,0.23-0.5c-2.32,1.3-5.55-3.07-6.4,0.96l-1.53,0.99
		c1.98,0.31-0.29,1.75,0.52,2.41c-0.78,0.24-2.01-1.21-1.05-1.41l0.15,0.2c0.35-2.11-2.46-0.75-2.41-2.18
		c-3.89,0.1-7.69-1.05-11.34-1.15l0.42,1.64l-1.27-0.1c-0.33-0.38-0.45-1.28,0.46-1.21c-0.47-0.92-1.52,0.78-1.55,1.13
		c-1.78-0.66,0.7-1.9,0.15-1.94l-0.74,0.12l0.17,0.19c-0.6,0.67-0.65,1.37-1.75,1.29c-0.68-0.32-0.35-1-0.62-1.06
		c0-0.12-0.09-0.17-0.42-0.05l-1.6-0.14l0.64,1.29c-0.71,0.64-1.51-0.07-0.77,1.39c-1.08-2.26-5.98-0.81-6.65-1.51
		c-1,0.94-1.98,0.92-3.2,0.81c0.3,0.26,0.48,1.72-0.57,1.53c0.38-2.99-1.92-1.3-2.77-3.44c0.76,1.42-2.98,0.35-1.8,2.37
		c-0.88-0.24-0.05-1.12-0.72-1.81c-2.08,1.15-4.6-0.76-7.17-0.37c-0.04,0.39,0.4,0.99-0.16,1.58l-1.36-1.96
		c-0.51,0.19-0.47,2.27-1.4,0.9c0.13,0.33,0.33,0.83-0.01,0.96c-5.05-1.92-10.32,1.56-15.45-2.03c0.69,0.77,0.23,0.84-0.3,0.86
		c0.34,0.18-0.01,0.97,0.06,1.5l-2.14-1.47c-0.39,1.47-2.31,0.1-2.53,1.52l0.68-0.26c-0.9,1.67,1.27,3.7,1.13,5.85
		c1.01-1.9,2.67,2.8,4.33,0.09c0.37,0.44-0.31,0.69-0.11,1.19c0.42-0.92,0.92-1.11,1.87-0.7l-0.11,0.23
		c2.65-0.22,3.78,0.68,6.76,1.28l-0.22-1.05c0.64,0.14,0.77,0.47,1.07,0.73c0.74-1.6-1.8-0.09-1.12-1.86
		c0.85,2.15,4.51,0.03,5.08,2.48c0.98,0.02-0.28-1.22,0.7-1.2l0.26,0.65l0.25-0.85c0.64,0.14,0.97,0.97,0.99,1.53
		c-0.16-0.06-0.44,0.16-0.61,0.2c0.83,0.78,2.35-0.26,2.65-0.01l-0.95-0.41c2.68-0.61,5.96,0.25,8.55-1.09l-0.2-0.51
		c1.98-0.92,1.58,0.55,3.76,0.12l-0.07,0.12c0.43-0.5,1.01-0.75,1.6-0.69c-0.55,0.58,1.04,1.13,0.32,1.78
		c2.14-0.99,1.06-0.78,2.48-2.63l0.33,0.83c0.48-0.75,0.52-1.14,1.61-1.35c-0.89,0.71,0.69,1.26-0.3,2.19
		c2.27,1.81,3.38-1.82,4.43,0.83c1.04-2.29-1.97-1.27-1.39-1.76c-0.49-0.75,0.87-1.72,1.58-1.49c0.73,0.06,1.23,2.94,3.06,2.89
		c-0.18-0.01-0.19,0.17-0.37,0.15c0.69,0.58,1.35-0.79,2.18,0.17c0.48-1.39,1.09,0.07,1.23-1.69l-1.68,0.41
		c0.95-0.46,1.84-2.53,3.41-1.53c-0.12,0.36-0.59,0.83-0.91,1.09c0.46,0.52,0.88-0.35,1.36,0.19c-0.14,1.77-2.04,0.38-3.06,1.73
		c0.5,0.75,1.93-1.28,1.42,0.64c0.74-2.44,1.8,0.31,3.04-1.55l-0.08,1.05c0.2-0.17,0.6-0.66,0.96-0.64l-0.66,1.37
		c1.01-1.17,1.94,1.03,2.9,0.38c-2.02,0.04-0.46-1.27-1.31-2.05c2.49-1.41,1.43,2.77,4.21,2.27c-0.37,0.15-1.41-0.64-0.82-1.13
		c0.53,0.23,1.23,0.63,1.55,1.19c1.84-0.22-0.28-1.09,0.5-1.74c0.63,1.29,0.91-0.52,1.71-0.93v1.07c2.11,0.7,0.56-2.24,2.45-1.4
		l-0.8,1.49l0.98-0.38l-0.2,1.22c1.08-0.91,1.41-0.67,2.46-0.33c-0.25-0.76,0.13-1.95,1.07-1.98c0.64,0.64-0.36,1.02,0.96,0.86
		c-0.3,0.67-0.62,1.53-1.2,0.53c-0.06,0.35-0.29,0.67-0.35,1.02c0.68,0.73,1.72,0.17,2.2,0.16c-0.19-0.04-0.41-0.1-0.52-0.25
		l1.91-1.49c0.3,0.4,0.06,0.73-0.17,1.05c0.39-0.11,0.65-0.61,1.22-0.71c-0.15,0.88-0.11,1.79-0.92,2.2l1.82-0.98
		c0.13,0.38,0.94,1.05,0.7,1.37c1.01,0.51,2.48-1.7,3.81-1.02c0.07-0.17,0.21-0.33,0.5-0.45c1.26,0.19,2.38,1.27,3.87,0.07
		l0.84,1.57c1.18-0.36-1.14-1.98,0.81-2.57c1.37-0.5,0.51,1.34,0.99,1.78c0.69-0.79,1.88-2.4,3.14-1.12
		C1512.07,636.07,1511.74,635.83,1511.35,635.95 M1525.76,635.26c-0.28,0.23-0.83,0.92-1.04,0.29
		C1525.03,634.32,1525.28,634.9,1525.76,635.26 M1547.66,632.67c-0.21,0.36-0.53,0.17-0.89-0.23
		C1547.03,632.35,1547.33,632.39,1547.66,632.67 M1608.68,625.17c-0.01,0.02-0.02,0.03-0.03,0.05
		C1608.03,624.81,1608.25,624.97,1608.68,625.17 M1609.97,625.64c0.13-0.15,0.12-0.3,0.07-0.44c-0.09,0.27-0.38,0.29-0.71,0.22
		C1609.42,625.69,1609.59,625.88,1609.97,625.64 M1471.09,626.06l0.25,0.28C1470.77,626.66,1470.93,626.38,1471.09,626.06"/>
	<path class="st1" d="M1545.18,634.14c-0.08-0.18-0.1-0.38-0.12-0.58C1544.95,633.74,1544.95,633.94,1545.18,634.14"/>
	<path class="st1" d="M1502.39,636.52c-0.01-0.01-0.03-0.01-0.05-0.02c-0.03,0.07-0.03,0.13-0.04,0.2L1502.39,636.52z"/>
	<path class="st1" d="M1589.94,634.76c-0.27-0.16-0.42-0.35-0.51-0.55C1589.41,634.47,1589.53,634.69,1589.94,634.76"/>
	<path class="st1" d="M1616.83,623.81l-0.83,0.29c0.4-0.05,0.55,0.18,0.75,0.35C1616.73,624.19,1616.57,623.82,1616.83,623.81"/>
	<path class="st1" d="M1624.02,630.47c0.12-0.13,0.26-0.02,0.37-0.15l-0.03-0.51C1623.84,629.86,1623.48,630.27,1624.02,630.47"/>
	<path class="st1" d="M1617.59,627.39c0.07,0.91,0.58,0.6,1.16,0.43c-0.03,0.01-0.07,0.02-0.1,0
		C1618.83,626.55,1618.21,626.97,1617.59,627.39"/>
	<path class="st1" d="M1618.89,627.79c0.18-0.04,0.36-0.07,0.54-0.03C1619.49,627.26,1619.21,627.66,1618.89,627.79"/>
	<path class="st1" d="M1611.61,625.04c0.27,0.24,0.17-1.15,0.33-0.78C1612.25,623.1,1610.11,625.65,1611.61,625.04"/>
	<polygon class="st1" points="1618.06,630.37 1617.85,629.25 1617.53,630.15 	"/>
	<path class="st1" d="M1613.48,629.55l0.93,0.31c-0.01-0.19,0.1-0.3,0.25-0.38C1614.09,629.45,1613.46,629.22,1613.48,629.55"/>
	<path class="st1" d="M1614.66,629.48c0.3,0.02,0.58-0.01,0.75-0.19C1615.24,629.31,1614.9,629.34,1614.66,629.48"/>
	<polygon class="st1" points="1616.8,630.71 1616.52,630.47 1615.87,630.39 	"/>
	<path class="st1" d="M1603.51,629.33l-1.01,0.32c-0.1,0.38,0.17,0.62,0.55,0.46C1603.29,629.86,1603.67,629.71,1603.51,629.33"/>
	<path class="st1" d="M1606.58,632.39c-0.28-0.23-0.29-0.47-0.45-0.85l-0.03,1.39L1606.58,632.39z"/>
	<path class="st1" d="M1603.62,632.72c-0.1,0.38-1.47,1.1-0.19,1.01C1603.54,633.36,1604.55,633.04,1603.62,632.72"/>
	<polygon class="st1" points="1588.38,630.97 1588.63,630.95 1588.59,628.67 	"/>
	<path class="st1" d="M1574.94,636.4c1.2,0.55,0.28-1.4,1.37-0.72c0.28-0.53-0.89-0.55-0.6-1.02
		C1574.98,635.23,1574.6,634.91,1574.94,636.4"/>
	<path class="st1" d="M1575.71,634.66c0.12-0.09,0.24-0.19,0.37-0.34C1575.87,634.46,1575.77,634.57,1575.71,634.66"/>
	<polygon class="st1" points="1424.01,624.91 1423.24,624.43 1423.74,625.2 	"/>
	<path class="st1" d="M1422.53,626.6l-0.18-1.45l-0.47,1.31C1422.06,626.39,1422.39,626.27,1422.53,626.6"/>
	<path class="st1" d="M1527.9,638.18l0.06-0.35c-0.12-0.38-0.3-0.41-0.66-0.46L1527.9,638.18z"/>
	<polygon class="st1" points="1517.44,637.09 1517.63,637.12 1517.29,635.81 	"/>
	<path class="st1" d="M1508.67,638.76c0.36,0.05,0.78-0.24,1.14-0.18C1509.03,638.82,1508.57,637.13,1508.67,638.76"/>
	<polygon class="st1" points="504.45,570.71 504.45,611.16 532.73,611.16 532.73,625.1 504.45,625.1 504.45,679.31 486.58,679.31 
		486.58,556.38 540.19,556.38 540.19,570.71 	"/>
	<path class="st1" d="M583.97,629.62h-9.62v49.69h-17.68V556.37h40.27c12.76,0,18.26,6.09,18.26,17.28v38.49
		c0,9.82-3.93,15.52-13.16,17.09l19.44,50.08h-19.05L583.97,629.62z M574.35,615.48h17.28c4.72,0,5.89-0.98,5.89-5.69v-33.38
		c0-4.72-1.18-5.7-5.89-5.7h-17.28V615.48z"/>
	<path class="st1" d="M678.62,556.38c12.77,0,18.26,6.08,18.26,17.28v88.38c0,11.19-5.5,17.28-18.26,17.28h-21.8
		c-12.77,0-18.46-6.09-18.46-17.28v-88.38c0-11.19,5.7-17.28,18.46-17.28H678.62z M679.21,576.4c0-4.71-1.18-5.69-5.89-5.69h-11.4
		c-4.71,0-5.69,0.98-5.69,5.69v82.88c0,4.71,0.98,5.69,5.69,5.69h11.4c4.71,0,5.89-0.98,5.89-5.69V576.4z"/>
	<polygon class="st1" points="771.11,570.51 730.85,664.97 770.13,664.97 770.13,679.31 712.78,679.31 712.78,664.97 753.04,570.51 
		714.94,570.51 714.94,556.18 771.11,556.18 	"/>
	<polygon class="st1" points="841.21,664.97 841.21,679.31 787.79,679.31 787.79,556.38 839.84,556.38 839.84,570.71 805.67,570.71 
		805.67,608.61 833.95,608.61 833.95,622.95 805.67,622.95 805.67,664.97 	"/>
	<polygon class="st1" points="920.15,556.37 920.15,679.31 902.28,679.31 876.36,590.54 876.36,679.31 860.05,679.31 860.05,556.37 
		878.71,556.37 903.85,642.59 903.85,556.37 	"/>
	<polygon class="st1" points="996.72,570.71 996.72,611.16 1025,611.16 1025,625.1 996.72,625.1 996.72,679.31 978.85,679.31 
		978.85,556.38 1032.46,556.38 1032.46,570.71 	"/>
	<path class="st1" d="M1088.22,556.38c12.77,0,18.27,6.08,18.27,17.28v88.38c0,11.19-5.5,17.28-18.27,17.28h-21.8
		c-12.76,0-18.46-6.09-18.46-17.28v-88.38c0-11.19,5.7-17.28,18.46-17.28H1088.22z M1088.81,576.4c0-4.71-1.18-5.69-5.89-5.69h-11.4
		c-4.71,0-5.69,0.98-5.69,5.69v82.88c0,4.71,0.98,5.69,5.69,5.69h11.4c4.71,0,5.89-0.98,5.89-5.69V576.4z"/>
	<path class="st1" d="M1170.31,556.38c12.77,0,18.27,6.08,18.27,17.28v88.38c0,11.19-5.5,17.28-18.27,17.28h-21.8
		c-12.76,0-18.46-6.09-18.46-17.28v-88.38c0-11.19,5.7-17.28,18.46-17.28H1170.31z M1170.9,576.4c0-4.71-1.18-5.69-5.89-5.69h-11.4
		c-4.71,0-5.69,0.98-5.69,5.69v82.88c0,4.71,0.98,5.69,5.69,5.69h11.4c4.71,0,5.89-0.98,5.89-5.69V576.4z"/>
	<path class="st1" d="M1256.31,556.38c12.57,0,18.27,6.08,18.27,17.28v88.38c0,11.19-5.69,17.28-18.27,17.28h-42.82V556.38H1256.31z
		 M1256.7,576.01c0-4.71-1.18-5.69-5.89-5.69h-19.44v95.05h19.44c4.72,0,5.89-0.98,5.89-5.69V576.01z"/>
	<path class="st1" d="M1334.26,629.23c0-4.71-0.98-5.69-5.69-5.69h-14.54c-12.57,0-17.87-6.28-17.87-17.48v-32.41
		c0-11.19,5.7-17.28,18.27-17.28h19.24c12.77,0,18.27,6.09,18.27,17.28v18.07h-17.87V576.4c0-4.71-1.18-5.69-5.89-5.69h-8.25
		c-4.72,0-5.89,0.98-5.89,5.69v27.3c0,4.72,1.18,5.7,5.89,5.7h14.33c12.57,0,18.07,6.08,18.07,17.28v35.35
		c0,11.19-5.7,17.28-18.46,17.28h-19.05c-12.57,0-18.27-6.09-18.27-17.28v-18.06h17.88v15.31c0,4.71,1.18,5.69,5.89,5.69h8.25
		c4.71,0,5.69-0.98,5.69-5.69L1334.26,629.23L1334.26,629.23z"/>
</g>
</svg>
